<svg id="Layer_1" data-name="Layer 1" xmlns="http://www.w3.org/2000/svg" xmlns:xlink="http://www.w3.org/1999/xlink" viewBox="0 0 462.76 395.72"><defs><style>.cls-1,.cls-15,.cls-17{fill:none;}.cls-10,.cls-2{fill:#92e3a9;}.cls-3{opacity:0.7;}.cls-13,.cls-18,.cls-22,.cls-4,.cls-7{fill:#fff;}.cls-11,.cls-5,.cls-8{fill:#263238;}.cls-5,.cls-6,.cls-9{opacity:0.2;}.cls-13,.cls-22,.cls-5,.cls-6{isolation:isolate;}.cls-10,.cls-15,.cls-17,.cls-18,.cls-19,.cls-20,.cls-21,.cls-7{stroke:#263238;}.cls-15,.cls-7,.cls-8{stroke-miterlimit:10;}.cls-8{stroke:#fff;}.cls-10,.cls-17,.cls-18,.cls-19,.cls-20,.cls-21{stroke-linecap:round;stroke-linejoin:round;}.cls-12{clip-path:url(#clip-path);}.cls-13,.cls-14{opacity:0.5;}.cls-16{clip-path:url(#clip-path-2);}.cls-19{fill:#757575;}.cls-20{fill:#999;}.cls-21{fill:#bfbfbf;}.cls-22{opacity:0.1;}.cls-23{clip-path:url(#clip-path-3);}</style><clipPath id="clip-path" transform="translate(-18.96 -51.95)"><path class="cls-1" d="M347.67,388.48l.12-44.21c.48-1.78.87-8.34,1.89-12.91,1.74-7.66-5.1-16.9-5.58-17.2-1.92-1.19-6-1.17-6-1.17s-4-4.57-7.57-6a17.82,17.82,0,0,0-7.66-1,36.43,36.43,0,0,0-9.1-5.51,7.48,7.48,0,0,0-7.66,1.44l-4.47,7a5.21,5.21,0,0,0,.61,6.52c2.14,2.11,4.88,1.12,6.26,1.12,1.91,0,2.63-2.16,2.63-2.16s.47,11.26,0,12.69h0c-.49,1.43-4.07,4.78-4.07,4.78l-12-15.83a114.51,114.51,0,0,1-10.77-17.78,8.7,8.7,0,0,0-1.35-2.09c-2.1-2.38-6.59-3.07-7.76,1.32a8.7,8.7,0,0,0,.19,4.24c5,14.78,11.38,25.95,17.19,37.59,3.45,6.91,2.17,6.83,3.89,9.95-.2.14-.1.4-.32.53-.84,3.36-1.43,6.73-2.28,10.09A45.68,45.68,0,0,0,290,347.71a27.43,27.43,0,0,0,.53-7.12,9.36,9.36,0,0,0-3-6.31,6.17,6.17,0,0,0-3.49-1.36,3.65,3.65,0,0,0-3.84,3.12,36.79,36.79,0,0,1-1,5.41,55,55,0,0,1-2.76,6.8c0,4.46,2.76,3.73,4.77,21.67,1.56,14,19.56,23.21,29.36,33.3L321,436.08a202.25,202.25,0,0,0,35-18.29Z"/></clipPath><clipPath id="clip-path-2" transform="translate(-18.96 -51.95)"><path class="cls-1" d="M237.2,336.42c-.43-2-3.24-1.69-3.24-1.69-9.45.56-10.72,15.37-10.72,15.37l-3.39,10.14-1-15.26.1-19.67s2.86-18.82,1.59-21.77a4.31,4.31,0,0,0-3.91-2.86c-5.5-1.38-5.82,6.55-5.82,6.55l-4.64,16.18-1.91,17.45-1.58-.84s-.75-18.52-.43-18.83,2.22-12.79,2.22-12.79,1.05-2.33,2.33-5.29a6.42,6.42,0,0,0,0-5.29c-2.23-4.54-6.87-2.42-7.83,0a71.45,71.45,0,0,1-3.8,7.19l-5.3,14.49c.2,3.28-1.68,19.46-1.68,19.46l-1.91-.87-3.07-9.5,2.34-9.73s5.07-5.6,4.22-8.88-5.18-2.32-5.18-2.32L175.88,318h-2.55l-6,7.61A48.3,48.3,0,0,0,166,350.9l1.38,6.43v41.56s-4.12,6.66-4.12,7.29c0,.29-1.7,5.54-4.07,12.09,10.37,6.1,19.3,10.82,25.63,13.31q4.5,1.77,9,3.37c3.8-10.67,8.24-22.08,10.69-24.75,4.86-5.28,14.38-15.44,14.38-15.44s10.81-17.37,12.08-23.14c1-4.74,3.58-13.35,4.46-16.3a5.8,5.8,0,0,0,.24-2.07c-.07-1.56-.22-4.59-.22-7.26C235.36,342.2,237.62,338.39,237.2,336.42Z"/></clipPath><clipPath id="clip-path-3" transform="translate(-18.96 -51.95)"><path class="cls-1" d="M450,317.12A71.47,71.47,0,0,1,449,329c-2.9,17.31-12,29.93-22.76,29.93a13.75,13.75,0,0,1-2.86-.3c-11.75-2.49-20.86-20.11-20.86-41.49,0-23.08,10.62-31.25,23.72-31.25S450,294,450,317.12Z"/></clipPath></defs><title>code-typing-concept-illustration</title><g id="Background_Simple" data-name="Background Simple"><path class="cls-2" d="M481.72,245.83a119.35,119.35,0,0,1-3.33,28.48c-.75,3.06-1.65,6.11-2.68,9.11-.3.86-.6,1.72-.92,2.57-.26.7-.53,1.4-.8,2.09l-.23.57c-.29.72-.58,1.44-.89,2.15l-.15.35c-.3.7-.61,1.4-.92,2.09l-.42.91c-.28.62-.57,1.23-.87,1.84s-.63,1.29-.95,1.93c-.12.23-.23.46-.35.68l-.85,1.65-.69,1.27q-1.59,2.94-3.33,5.8c-.47.78-.95,1.56-1.44,2.33-.11.19-.23.38-.35.57q-.84,1.32-1.71,2.64c-.47.71-.94,1.42-1.43,2.13l-1.27,1.85-.28.39c-.44.64-.9,1.28-1.35,1.92-.56.79-1.13,1.56-1.7,2.34-.12.16-.23.32-.35.47-.65.89-1.32,1.77-2,2.64-.4.52-.8,1-1.21,1.56-.72.95-1.46,1.89-2.21,2.83s-1.43,1.79-2.16,2.68l-.24.29c-.72.89-1.44,1.77-2.18,2.65-.21.27-.44.54-.66.8-.67.81-1.35,1.62-2,2.42q-2.94,3.48-5.93,6.9-6.08,7-12.41,13.89c-3.51,3.8-7.07,7.58-10.7,11.29-17.42,17.89-36.28,34.58-56.79,47.88-2.55,1.65-5.12,3.26-7.72,4.79l-2.85,1.67-.49.28-3,1.65c-.95.54-2,1.11-3,1.64l-1.38.72q-3,1.56-6,3c-1.09.52-2.18,1-3.28,1.51s-2,.91-3.05,1.35l-1.25.53c-.93.4-1.87.78-2.81,1.16q-2.71,1.1-5.48,2.09l-2.12.76-1.2.41-2,.65-1.72.55h-.06c-1.13.35-2.26.69-3.39,1-1.79.52-3.58,1-5.38,1.46-1.19.3-2.38.58-3.58.85l-3.4.74-.27,0c-1.18.24-2.37.47-3.56.68l-1.82.31-1.84.29c-.55.09-1.11.17-1.66.24l-2,.28a154.25,154.25,0,0,1-21.37,1.21h-1.28a176.47,176.47,0,0,1-19.35-1.45L238.3,446l-2.43-.34-1.89-.3c-2.67-.42-5.32-.9-8-1.44-.59-.11-1.17-.23-1.75-.36-1.78-.37-3.57-.77-5.34-1.19-1.19-.28-2.37-.57-3.55-.87l-1.77-.46-1.77-.47c-2.35-.63-4.69-1.31-7-2q-4.06-1.23-8.08-2.61l-2.92-1q-4.5-1.61-9-3.37l-1.63-.66-1.31-.57L181,430c-1.94-.88-4-1.91-6.32-3.07l-1.16-.6c-1.39-.73-2.84-1.5-4.33-2.32-3.13-1.72-6.48-3.62-10-5.69-40-23.54-101.26-67.72-115.64-84.47-.73-.85-1.44-1.71-2.15-2.58-.55-.68-1.1-1.37-1.63-2.07s-1-1.26-1.44-1.91-.83-1.13-1.23-1.71S36.32,324.49,36,324l-.08-.12-1.34-2c-.44-.66-.84-1.3-1.24-2-.2-.31-.39-.63-.58-.95q-.68-1.11-1.32-2.22h0c-.46-.82-.92-1.64-1.37-2.47-.78-1.45-1.53-2.91-2.23-4.39l-.54-1.15a91.92,91.92,0,0,1-3.74-9.29c-.39-1.1-.74-2.21-1.08-3.32-.43-1.43-.82-2.87-1.18-4.31-.07-.29-.14-.57-.2-.86-.18-.75-.35-1.51-.5-2.27-.23-1.06-.42-2.12-.6-3.19a7,7,0,0,0-.12-.78c-.09-.55-.17-1.1-.24-1.66s-.17-1.33-.24-2c0-.23-.05-.45-.07-.67-.06-.57-.1-1.14-.15-1.7a.33.33,0,0,0,0-.14c-.05-.68-.09-1.35-.11-2v-.19q0-1.06-.06-2.13v-2c0-1,.05-2.09.11-3.13,0-.68.09-1.36.15-2,.12-1.34.28-2.68.48-4,.1-.68.21-1.36.34-2q.36-2,.87-4.05a69.76,69.76,0,0,1,3.45-10.25A74.32,74.32,0,0,1,28,239.37c.1-.2.22-.41.34-.61,5.39-9.49,12.72-17.91,21-25.71.88-.84,1.77-1.66,2.68-2.47L54.85,208l.18-.16c1.55-1.33,3.12-2.67,4.71-4,2.45-2.05,4.94-4.06,7.45-6.06l.25-.2c2.15-1.7,4.32-3.39,6.48-5.07,3.4-2.63,6.81-5.25,10.15-7.86l2.64-2.07c1-.76,1.92-1.52,2.87-2.28a213.61,213.61,0,0,0,23.86-22.64q2.09-2.28,4.14-4.59c.65-.74,1.3-1.47,1.94-2.21,9.13-10.4,17.62-20.92,27.07-30.85q3.38-3.56,6.92-7c2-1.91,4-3.79,6.14-5.63A90.77,90.77,0,0,1,167,101c3.55-2.76,7.29-5.41,11.29-7.94,1-.63,2-1.24,2.93-1.84,99.71-62,173.1-41.74,222.06,0Q408.85,96,414,101c2.08,2,4.09,4.09,6,6.19.22.22.42.45.63.69,1.37,1.46,2.71,2.93,4,4.41l1.15,1.32c.57.66,1.14,1.32,1.7,2s1.37,1.63,2,2.45l1.27,1.56c2.73,3.36,5.33,6.77,7.81,10.2.5.68,1,1.37,1.48,2.06,3.42,4.8,6.6,9.65,9.55,14.47l1.25,2.06q.63,1,1.23,2.07l1.19,2.05c.4.69.79,1.37,1.17,2.05l1.14,2c.39.68.76,1.36,1.11,2l1.09,2c.36.67.71,1.35,1.06,2l1,2,1,2c1.33,2.67,2.58,5.27,3.73,7.82.58,1.3,1.16,2.59,1.71,3.86,2.49,5.72,4.62,11.19,6.36,16.28v.07c.17.49.33,1,.49,1.45s.33,1,.49,1.48.25.75.36,1.13c.18.56.36,1.12.53,1.69s.37,1.22.54,1.83c.33,1.12.65,2.24,1,3.37.26.95.51,1.9.75,2.86a2.6,2.6,0,0,0,.14.53c0,.18.07.3.11.45.14.56.28,1.12.41,1.69.36,1.49.69,3,1,4.49.17.82.34,1.63.49,2.45l.09.46q.23,1.15.42,2.31c.18,1,.35,2.07.5,3.1.13.78.24,1.57.35,2.36a.87.87,0,0,0,0,.35c.07.52.14,1,.2,1.58s.11.88.16,1.31c.18,1.59.34,3.17.47,4.76l.09,1.08.12,1.81c0,.67.08,1.34.11,2s.05,1,.07,1.55c0,.76.05,1.53.06,2.29S481.72,244.94,481.72,245.83Z" transform="translate(-18.96 -51.95)"/><g class="cls-3"><path class="cls-4" d="M481.72,245.83a119.35,119.35,0,0,1-3.33,28.48c-.75,3.06-1.65,6.11-2.68,9.11-.3.86-.6,1.72-.92,2.57-.26.7-.53,1.4-.8,2.09l-.23.57c-.29.72-.58,1.44-.89,2.15l-.15.35c-.3.7-.61,1.4-.92,2.09l-.42.91c-.28.62-.57,1.23-.87,1.84s-.63,1.29-.95,1.93c-.12.23-.23.46-.35.68l-.85,1.65-.69,1.27q-1.59,2.94-3.33,5.8c-.47.78-.95,1.56-1.44,2.33-.11.19-.23.38-.35.57q-.84,1.32-1.71,2.64c-.47.71-.94,1.42-1.43,2.13l-1.27,1.85-.28.39c-.44.64-.9,1.28-1.35,1.92-.56.79-1.13,1.56-1.7,2.34-.12.16-.23.32-.35.47-.65.89-1.32,1.77-2,2.64-.4.52-.8,1-1.21,1.56-.72.95-1.46,1.89-2.21,2.83s-1.43,1.79-2.16,2.68l-.24.29c-.72.89-1.44,1.77-2.18,2.65-.21.27-.44.54-.66.8-.67.81-1.35,1.62-2,2.42q-2.94,3.48-5.93,6.9-6.08,7-12.41,13.89c-3.51,3.8-7.07,7.58-10.7,11.29-17.42,17.89-36.28,34.58-56.79,47.88-2.55,1.65-5.12,3.26-7.72,4.79l-2.85,1.67-.49.28-3,1.65c-.95.54-2,1.11-3,1.64l-1.38.72q-3,1.56-6,3c-1.09.52-2.18,1-3.28,1.51s-2,.91-3.05,1.35l-1.25.53c-.93.4-1.87.78-2.81,1.16q-2.71,1.1-5.48,2.09l-2.12.76-1.2.41-2,.65-1.72.55h-.06c-1.13.35-2.26.69-3.39,1-1.79.52-3.58,1-5.38,1.46-1.19.3-2.38.58-3.58.85l-3.4.74-.27,0c-1.18.24-2.37.47-3.56.68l-1.82.31-1.84.29c-.55.09-1.11.17-1.66.24l-2,.28a154.25,154.25,0,0,1-21.37,1.21h-1.28a176.47,176.47,0,0,1-19.35-1.45L238.3,446l-2.43-.34-1.89-.3c-2.67-.42-5.32-.9-8-1.44-.59-.11-1.17-.23-1.75-.36-1.78-.37-3.57-.77-5.34-1.19-1.19-.28-2.37-.57-3.55-.87l-1.77-.46-1.77-.47c-2.35-.63-4.69-1.31-7-2q-4.06-1.23-8.08-2.61l-2.92-1q-4.5-1.61-9-3.37l-1.63-.66-1.31-.57L181,430c-1.94-.88-4-1.91-6.32-3.07l-1.16-.6c-1.39-.73-2.84-1.5-4.33-2.32-3.13-1.72-6.48-3.62-10-5.69-40-23.54-101.26-67.72-115.64-84.47-.73-.85-1.44-1.71-2.15-2.58-.55-.68-1.1-1.37-1.63-2.07s-1-1.26-1.44-1.91-.83-1.13-1.23-1.71S36.32,324.49,36,324l-.08-.12-1.34-2c-.44-.66-.84-1.3-1.24-2-.2-.31-.39-.63-.58-.95q-.68-1.11-1.32-2.22h0c-.46-.82-.92-1.64-1.37-2.47-.78-1.45-1.53-2.91-2.23-4.39l-.54-1.15a91.92,91.92,0,0,1-3.74-9.29c-.39-1.1-.74-2.21-1.08-3.32-.43-1.43-.82-2.87-1.18-4.31-.07-.29-.14-.57-.2-.86-.18-.75-.35-1.51-.5-2.27-.23-1.06-.43-2.12-.6-3.19a7,7,0,0,0-.12-.78c-.09-.55-.17-1.1-.24-1.66s-.17-1.33-.24-2c0-.23-.05-.45-.07-.67-.06-.57-.1-1.14-.15-1.7a.33.33,0,0,0,0-.14c-.05-.68-.09-1.35-.11-2v-.19q0-1.06-.06-2.13c0-1.73,0-3.45.11-5.17,0-.68.09-1.36.15-2,.12-1.34.28-2.68.48-4,.1-.68.21-1.36.34-2q.36-2,.87-4.05a69.76,69.76,0,0,1,3.45-10.25A74.32,74.32,0,0,1,28,239.33c.1-.2.22-.41.34-.61,5.39-9.49,12.72-17.91,21-25.71l1.42-1.33L52,210.54c1-.87,1.91-1.72,2.88-2.58l.18-.16c1.55-1.33,3.12-2.67,4.71-4,2.45-2.05,4.94-4.06,7.45-6.06l.25-.2c2.15-1.7,4.32-3.39,6.48-5.07L77.18,190c2.31-1.78,4.62-3.56,6.89-5.34l2.64-2.07c1-.76,1.92-1.52,2.87-2.28a213.61,213.61,0,0,0,23.86-22.64q2.09-2.28,4.14-4.59c.65-.74,1.3-1.47,1.94-2.21,9.13-10.4,17.62-20.92,27.07-30.85q3.38-3.56,6.92-7c2-1.91,4-3.79,6.14-5.63C162,105.11,164.43,103,167,101c3.55-2.76,7.29-5.41,11.29-7.94,1-.63,2-1.24,2.93-1.84,99.71-62,173.1-41.74,222.06,0Q408.85,96,414,101c2.08,2,4.09,4.09,6,6.19.22.22.42.45.63.69,1.37,1.46,2.71,2.93,4,4.41l1.15,1.32c.57.66,1.14,1.32,1.7,2s1.37,1.63,2,2.45l1.27,1.56c2.73,3.36,5.33,6.77,7.81,10.2.5.68,1,1.37,1.48,2.06,3.42,4.8,6.6,9.65,9.55,14.47l1.25,2.06q.63,1,1.23,2.07l1.19,2.05c.4.69.79,1.37,1.17,2.05l1.14,2c.39.68.76,1.36,1.11,2l1.09,2c.36.67.71,1.35,1.06,2l1,2,1,2c1.33,2.67,2.58,5.27,3.73,7.82.58,1.3,1.16,2.59,1.71,3.86,2.49,5.72,4.62,11.19,6.36,16.28v.07c.17.49.33,1,.49,1.45s.33,1,.49,1.48.25.75.36,1.13c.18.56.36,1.12.53,1.69s.37,1.22.54,1.83c.33,1.12.65,2.24,1,3.37.26.95.51,1.9.75,2.86a2.6,2.6,0,0,0,.14.53c0,.18.07.3.11.45.14.56.28,1.12.41,1.69.36,1.49.69,3,1,4.49.17.82.34,1.63.49,2.45l.09.46q.23,1.15.42,2.31c.18,1,.35,2.07.5,3.1.13.78.24,1.57.35,2.36a.87.87,0,0,0,0,.35c.07.52.14,1,.2,1.58s.11.88.16,1.31c.18,1.59.34,3.17.47,4.76l.09,1.08.12,1.81c0,.67.08,1.34.11,2s.05,1,.07,1.55c0,.76.05,1.53.06,2.29S481.72,244.94,481.72,245.83Z" transform="translate(-18.96 -51.95)"/></g></g><g id="Plants"><path class="cls-5" d="M32.14,262.26C31.94,262.13,32,262,32.14,262.26Z" transform="translate(-18.96 -51.95)"/><path class="cls-6" d="M125.67,253.44a18.31,18.31,0,0,1-12.57,14.47l-2.48.81c-8.92,12.63-24.56,18-37.89,10.19l-3.9-2.29-10.92-13h-.13c-3.46.72-7.37.19-9.93-2.25a3.4,3.4,0,1,1-5.51-3.25c-2.2,1.94-5.6,1.05-7.72-1.07a66.69,66.69,0,0,1,2-17.29A69.26,69.26,0,0,1,40,229.56a74.32,74.32,0,0,1,3.59-7.34c.1-.2.22-.41.34-.61a89,89,0,0,1,6.65-10l1.26-1.14c1-.87,1.91-1.72,2.88-2.58l.18-.16c1.55-1.33,3.12-2.67,4.71-4,2.45-2,4.94-4.06,7.45-6.06l.25-.2c2.15-1.7,4.32-3.39,6.48-5.07l3.26-2.52a9.08,9.08,0,0,1,1.92.45c2.67.93,3.13,3.38,5,5.06,2.46,2.25,4.82-1.53,8.61-1.41,11.65.36,7.13,12.31,12.82,10.81,24.57-6.48,20.44,25,9.76,31.85C121.46,241.81,126.89,245.26,125.67,253.44Z" transform="translate(-18.96 -51.95)"/><ellipse class="cls-7" cx="53.88" cy="190.44" rx="41.44" ry="40.93"/><ellipse class="cls-8" cx="53.88" cy="188.78" rx="37.78" ry="37.32"/><path class="cls-2" d="M32.24,255.44c-2.38,1.48-3.06,6.45-1.19,8.61s5.46.49,6.19-2.87a1.12,1.12,0,0,0,1.41.73,1.15,1.15,0,0,0,.59-.45,2.3,2.3,0,0,0,.14-2.1c-.18-.15-.11-.26,0,0,1.22,1,3.32-.09,3.61-2.16-.89,5.5,4.11,10.3,7.79,7.5-1.09,2.34.34,5.41,2.24,6s3.94-.53,5.76-1.77,3.69-2.67,5.68-2.76c1.73-.08,3.34.9,5,1.48,5.26,1.83,11.42-.6,15.44-6.11,2.66,4.55,9.21,2.87,11-2.79.37,2.65,2.18,4.67,4.21,4.69s4.06-1.94,4.76-4.57h0c0,2.51,2.28,3.74,3.88,2.13a9.37,9.37,0,0,0,2.31-8.87c2.72-.11,5.36-3.27,5.77-6.93s-1.43-7.34-4.06-8.06c4.52-1.87,8-8,8.22-14.29s-3.06-12.09-7.49-13.55a4.7,4.7,0,0,0-5.08,1.06c-.53-3.57-2.15-6.76-4.54-8.36-3.8-2.57-9.09-.81-11.92,4a9.43,9.43,0,0,0,.22-8.38c-1.26-2.33-3.76-3.27-5.88-2.17-.45-3.83-3.41-6.55-6.3-5.81s-5.22,4.84-5,8.71c-.27-3.12-4-3.89-5.28-1.27.11.24-.06.1,0,0-1.84-3.86-5.58-5.84-9-4.71-3.69,1.21-6.79,5.84-7.27,10.9a6.51,6.51,0,0,0-9,.25c-2.73,2.46-4.31,7.14-3.83,11.32-2.87-2.83-7.7-1.28-9.67,3.1s-.62,10.58,2.71,12.42c-2.29.35-4.31,3.39-4.31,6.47s2,5.72,4.33,5.64c-2.32.2-4.51,2.94-4.85,6.05S30,254.76,32.24,255.44Z" transform="translate(-18.96 -51.95)"/><g class="cls-9"><path class="cls-4" d="M70.33,241.1a4.31,4.31,0,0,0-4-1,4.81,4.81,0,0,0-3,3.72c-.32,1.81.52,3.81,1.9,4.15,1.69.42,3.42-1.47,5.14-1.26a10.78,10.78,0,0,1,1.77.58c2.47.69,5-1.53,7.06-3.61a10,10,0,0,0,2-2.49,4.07,4.07,0,0,0,.26-3.29c-.6-1.35-2.1-1.46-3.36-1.2a13.41,13.41,0,0,0-7,4.1c.07-.51.14-1,.22-1.52Z" transform="translate(-18.96 -51.95)"/><path class="cls-4" d="M106.45,236.17a5.73,5.73,0,0,0-2.14-1.32,2.05,2.05,0,0,0-2.26,1,3.28,3.28,0,0,0,.56,3.76,5.27,5.27,0,0,0,3.13,1.17c1.14.15,2.58.12,3.17-1.21a2.89,2.89,0,0,0-.48-2.88,5,5,0,0,0-2.22-1.27Z" transform="translate(-18.96 -51.95)"/><path class="cls-4" d="M49.91,215.74a11,11,0,0,0-4.74,7.32c-.18.94-.18,2.12.46,2.58a1.7,1.7,0,0,0,1.55,0l6.64-2.4a10,10,0,0,0-3,2.19,5,5,0,0,0-1.2,3.92,2.88,2.88,0,0,0,3,2.44,6.43,6.43,0,0,0,3.67-2.08,6.74,6.74,0,0,0,2.38-4.45c0-1.8-1.7-3.37-2.81-2.15A24.44,24.44,0,0,0,63,218.52a8.55,8.55,0,0,0,2.09-2.58,4.35,4.35,0,0,0,.27-3.44c-2.16-5.09-5.15,2.75-6.55,3.52C56.18,217.48,53.28,213.76,49.91,215.74Z" transform="translate(-18.96 -51.95)"/><path class="cls-4" d="M39.23,238.69a3.17,3.17,0,0,0,.53,2.88,1.3,1.3,0,0,0,2.12-.68,8.12,8.12,0,0,0-4,3.09c-1,1.64-.77,4.39.69,4.91.91.33,1.89-.31,2.75-.95a57,57,0,0,0,6.93-6.15,3.17,3.17,0,0,0,2.48,4.14c1.64.08,3.2-1.14,4.63-2.32,1.75-1.45,3.77-3.61,3.36-6.09A3,3,0,0,0,55.3,235a2.9,2.9,0,0,0-.81.24c-1.7.75-3,2.56-4.21,4.3,1-1.78-.31-4.25-1.93-4.43s-3.16,1.14-4.17,2.68c1.86-1.4,2.33-4.77-.12-5C42.44,232.65,39.65,237,39.23,238.69Z" transform="translate(-18.96 -51.95)"/><path class="cls-4" d="M89.77,228.09c-1.38-.58-3.14.68-3.54,2.53s.63,3.87,2.08,4.06a4.41,4.41,0,0,0-2.83,2,3.63,3.63,0,0,0-.63,2.14,2,2,0,0,0,1.94,1.8,5.37,5.37,0,0,0,2.59-1.08,4.38,4.38,0,0,0-2.55,1.09,2.58,2.58,0,0,0-.43,3c.52.64,1.39.47,2.11.17a11.24,11.24,0,0,0,4.38-3.37,3.53,3.53,0,0,0,3.59,1.73,3.47,3.47,0,0,0,2.14-3.9,2.52,2.52,0,0,0-2.2-1.94,5.71,5.71,0,0,0-2.88.75,7.41,7.41,0,0,0,2.37-3.38c.37-1.44-.35-3.29-1.51-3.11-1.31.21-2,2.52-3.06,3.4C90.09,232.55,92.53,229.24,89.77,228.09Z" transform="translate(-18.96 -51.95)"/><path class="cls-4" d="M66.36,222.6c-1.5,1.37-2.07,3.93-2,6.21.06,2.52.91,5.16,2.71,6.06,2.36,1.18,5.39-1.53,5.89-4.83a8.08,8.08,0,0,0-3.41-7.92A2.87,2.87,0,0,0,66.36,222.6Z" transform="translate(-18.96 -51.95)"/><path class="cls-4" d="M83.08,218.86l.6.64a2.63,2.63,0,0,0-3.61-.85,2.78,2.78,0,0,0-.73.68,4.76,4.76,0,0,0-.12,5.56,2.71,2.71,0,0,0,3.83.06,2.68,2.68,0,0,0,.53-.72,4,4,0,0,0,5.23-1.57c1.25-1.93,1-5.17-.59-6.26s-4.18.85-4,3.25l-.7-1Z" transform="translate(-18.96 -51.95)"/><path class="cls-4" d="M101.41,221.52a13.64,13.64,0,0,0-2.93,5.27c-.47,2.07.19,4.62,1.79,5s3.12-1.35,4.07-3.15a8,8,0,0,0,1.07-5.4c-.44-1.77-2.45-2.71-3.49-1.26Z" transform="translate(-18.96 -51.95)"/><path class="cls-4" d="M75.12,210.83a2.3,2.3,0,0,0-2.86-1.55,2.2,2.2,0,0,0-.86.47,5.12,5.12,0,0,0-1.26,5,3.93,3.93,0,0,0,3.35,2.91,3.69,3.69,0,0,0,3.63-3.75c0-.11,0-.23,0-.34A3.2,3.2,0,0,0,80.53,215a9,9,0,0,0,3.63-1.94c1.54-1.21,3.19-3,3.07-5.25a3.2,3.2,0,0,0-2.8-3.12,5.14,5.14,0,0,0-3.86,2.05c-.85.95-1.56,2.12-2.48,3s-2.15,1.35-3.1.75Z" transform="translate(-18.96 -51.95)"/></g></g><g id="Keyboard"><rect class="cls-10" x="126.72" y="220.81" width="230.67" height="97.15"/><rect class="cls-7" x="131.54" y="226.69" width="21.7" height="12.01"/><rect class="cls-7" x="317.87" y="285.25" width="34.18" height="12.01"/><rect class="cls-7" x="330.95" y="241.69" width="21.1" height="12.01"/><rect class="cls-7" x="131.54" y="270.44" width="21.7" height="12.01"/><rect class="cls-7" x="131.54" y="255.97" width="17.57" height="12.01"/><rect class="cls-7" x="131.54" y="241.33" width="12.01" height="12.01"/><rect class="cls-7" x="146.88" y="241.33" width="12.01" height="12.01"/><rect class="cls-7" x="162.21" y="241.33" width="12.01" height="12.01"/><rect class="cls-7" x="177.54" y="241.33" width="12.01" height="12.01"/><rect class="cls-7" x="192.88" y="241.33" width="12.01" height="12.01"/><rect class="cls-7" x="208.21" y="241.33" width="12.01" height="12.01"/><rect class="cls-7" x="223.54" y="241.33" width="12.01" height="12.01"/><rect class="cls-7" x="238.88" y="241.33" width="12.01" height="12.01"/><rect class="cls-7" x="254.21" y="241.33" width="12.01" height="12.01"/><rect class="cls-7" x="269.54" y="241.33" width="12.01" height="12.01"/><rect class="cls-7" x="284.88" y="241.33" width="12.01" height="12.01"/><rect class="cls-7" x="300.21" y="241.33" width="12.01" height="12.01"/><rect class="cls-7" x="315.55" y="241.33" width="12.01" height="12.01"/><rect class="cls-7" x="131.54" y="300.07" width="12.01" height="12.01"/><rect class="cls-7" x="146.88" y="300.07" width="12.01" height="12.01"/><rect class="cls-7" x="162.21" y="300.07" width="12.01" height="12.01"/><rect class="cls-7" x="177.54" y="300.07" width="14.66" height="12.01"/><rect class="cls-7" x="195.52" y="300.07" width="73.35" height="12.01"/><rect class="cls-7" x="293.53" y="300.07" width="12.01" height="12.01"/><rect class="cls-7" x="308.86" y="300.07" width="12.01" height="12.01"/><rect class="cls-7" x="324.22" y="300.07" width="12.01" height="12.01"/><rect class="cls-7" x="271.87" y="300.07" width="18.65" height="12.01"/><rect class="cls-7" x="340.04" y="300.07" width="12.01" height="12.01"/><rect class="cls-7" x="152.52" y="255.97" width="12.01" height="12.01"/><rect class="cls-7" x="167.85" y="255.97" width="12.01" height="12.01"/><rect class="cls-7" x="183.19" y="255.97" width="12.01" height="12.01"/><rect class="cls-7" x="198.52" y="255.97" width="12.01" height="12.01"/><rect class="cls-7" x="213.86" y="255.97" width="12.01" height="12.01"/><rect class="cls-7" x="229.19" y="255.97" width="12.01" height="12.01"/><rect class="cls-7" x="244.52" y="255.97" width="12.01" height="12.01"/><rect class="cls-7" x="259.86" y="255.97" width="12.01" height="12.01"/><rect class="cls-7" x="275.19" y="255.97" width="12.01" height="12.01"/><rect class="cls-7" x="290.52" y="255.97" width="12.01" height="12.01"/><rect class="cls-7" x="305.86" y="255.97" width="12.01" height="12.01"/><rect class="cls-7" x="321.19" y="255.97" width="12.01" height="12.01"/><polygon class="cls-7" points="352.05 255.97 352.05 282.63 340.04 282.63 340.04 267.99 336.52 267.99 336.52 255.97 352.05 255.97"/><rect class="cls-7" x="156.04" y="270.61" width="12.01" height="12.01"/><rect class="cls-7" x="171.37" y="270.61" width="12.01" height="12.01"/><rect class="cls-7" x="186.7" y="270.61" width="12.01" height="12.01"/><rect class="cls-7" x="202.04" y="270.61" width="12.01" height="12.01"/><rect class="cls-7" x="217.37" y="270.61" width="12.01" height="12.01"/><rect class="cls-7" x="232.71" y="270.61" width="12.01" height="12.01"/><rect class="cls-7" x="248.04" y="270.61" width="12.01" height="12.01"/><rect class="cls-7" x="263.37" y="270.61" width="12.01" height="12.01"/><rect class="cls-7" x="278.71" y="270.61" width="12.01" height="12.01"/><rect class="cls-7" x="294.04" y="270.61" width="12.01" height="12.01"/><rect class="cls-7" x="309.37" y="270.61" width="12.01" height="12.01"/><rect class="cls-7" x="324.71" y="270.61" width="12.01" height="12.01"/><rect class="cls-7" x="149.52" y="285.25" width="12.01" height="12.01"/><rect class="cls-7" x="164.85" y="285.25" width="12.01" height="12.01"/><rect class="cls-7" x="180.19" y="285.25" width="12.01" height="12.01"/><rect class="cls-7" x="195.52" y="285.25" width="12.01" height="12.01"/><rect class="cls-7" x="210.85" y="285.25" width="12.01" height="12.01"/><rect class="cls-7" x="226.19" y="285.25" width="12.01" height="12.01"/><rect class="cls-7" x="241.52" y="285.25" width="12.01" height="12.01"/><rect class="cls-7" x="256.86" y="285.25" width="12.01" height="12.01"/><rect class="cls-7" x="272.19" y="285.25" width="12.01" height="12.01"/><rect class="cls-7" x="287.52" y="285.25" width="12.01" height="12.01"/><rect class="cls-7" x="302.86" y="285.25" width="12.01" height="12.01"/><rect class="cls-7" x="156.04" y="227.41" width="12.01" height="12.01"/><rect class="cls-7" x="171.37" y="227.41" width="12.01" height="12.01"/><rect class="cls-7" x="186.7" y="227.41" width="12.01" height="12.01"/><rect class="cls-7" x="202.04" y="227.41" width="12.01" height="12.01"/><rect class="cls-7" x="217.37" y="227.41" width="12.01" height="12.01"/><rect class="cls-7" x="232.71" y="227.41" width="12.01" height="12.01"/><rect class="cls-7" x="248.04" y="227.41" width="12.01" height="12.01"/><rect class="cls-7" x="263.37" y="227.41" width="12.01" height="12.01"/><rect class="cls-7" x="278.71" y="227.41" width="12.01" height="12.01"/><rect class="cls-7" x="294.04" y="227.41" width="12.01" height="12.01"/><rect class="cls-7" x="309.37" y="227.41" width="12.01" height="12.01"/><rect class="cls-7" x="324.71" y="227.41" width="12.01" height="12.01"/><rect class="cls-7" x="340.04" y="227.41" width="12.01" height="12.01"/><rect class="cls-7" x="131.54" y="285.25" width="14.55" height="12.01"/><polygon class="cls-11" points="126.72 221.43 131.54 219.83 354.26 219.83 357.43 221.41 126.72 221.43"/></g><g id="Hands"><path class="cls-6" d="M310.33,440l-4.69-28.25a23.15,23.15,0,0,0-6.35-11.06c-9.33-9-21.66-18.24-22.19-30-.81-18-3.62-17.49-3.32-21.94a53.6,53.6,0,0,0,3.21-6.6,39.42,39.42,0,0,0,1.36-5.34,3.64,3.64,0,0,1,4-2.85,6.18,6.18,0,0,1,3.39,1.59,9.39,9.39,0,0,1,2.54,6.5,27.6,27.6,0,0,1-1,7.06,46.13,46.13,0,0,1,3,12.41c1.07-3.3,1.88-6.63,3-9.92.22-.12.14-.38.35-.5-1.51-3.24-.23-3.06-3.22-10.19-5-12-10.64-23.57-14.65-38.65a8.57,8.57,0,0,1,.09-4.24c1.45-4.31,5.89-3.32,7.83-.81a8.28,8.28,0,0,1,1.2,2.18,116.46,116.46,0,0,0,9.57,18.45l10.89,16.6s3.79-3.11,4.37-4.5h0c.57-1.4.85-12.67.85-12.67s-.86,2.11-2.77,2c-1.38-.1-4.18.7-6.17-1.54a5.21,5.21,0,0,1-.18-6.54l4.93-6.66a7.46,7.46,0,0,1,7.74-.93,36.91,36.91,0,0,1,8.71,6.1,18,18,0,0,1,7.58,1.46c3.49,1.68,7.15,6.5,7.15,6.5s4.07.25,5.9,1.58c.46.33,6.67,10,4.43,17.53-1.33,4.49-2.15,11-2.75,12.76L342,393.62l6.15,29L335,430a93.7,93.7,0,0,1-15,6.73Z" transform="translate(-18.96 -51.95)"/><path class="cls-4" d="M347.67,388.48l.12-44.21c.48-1.78.87-8.34,1.89-12.91,1.74-7.66-5.1-16.9-5.58-17.2-1.92-1.19-6-1.17-6-1.17s-4-4.57-7.57-6a17.82,17.82,0,0,0-7.66-1,36.43,36.43,0,0,0-9.1-5.51,7.48,7.48,0,0,0-7.66,1.44l-4.47,7a5.21,5.21,0,0,0,.61,6.52c2.14,2.11,4.88,1.12,6.26,1.12,1.91,0,2.63-2.16,2.63-2.16s.47,11.26,0,12.69h0c-.49,1.43-4.07,4.78-4.07,4.78l-12-15.83a114.51,114.51,0,0,1-10.77-17.78,8.7,8.7,0,0,0-1.35-2.09c-2.1-2.38-6.59-3.07-7.76,1.32a8.7,8.7,0,0,0,.19,4.24c5,14.78,11.38,25.95,17.19,37.59,3.45,6.91,2.17,6.83,3.89,9.95-.2.14-.1.4-.32.53-.84,3.36-1.43,6.73-2.28,10.09A45.68,45.68,0,0,0,290,347.71a27.43,27.43,0,0,0,.53-7.12,9.36,9.36,0,0,0-3-6.31,6.17,6.17,0,0,0-3.49-1.36,3.65,3.65,0,0,0-3.84,3.12,36.79,36.79,0,0,1-1,5.41,55,55,0,0,1-2.76,6.8c0,4.46,2.76,3.73,4.77,21.67,1.56,14,19.56,23.21,29.36,33.3L321,436.08a202.25,202.25,0,0,0,35-18.29Z" transform="translate(-18.96 -51.95)"/><g class="cls-12"><path class="cls-2" d="M342.55,328.41a7.64,7.64,0,0,1,2.29-3.46,2.93,2.93,0,0,1,3.83.13c-.75-2.29-1.54-4.56-2.38-6.83a10.52,10.52,0,0,0-2.78-4.68c-1.42-1.16-3.76-1.4-5,0a54.05,54.05,0,0,1,.28,15.81c-.37,2.84-.85,6.1,1.06,8.23.53.43,1.45-.34,1.11-.93-.16-.28-.72-.3-1-.28A51,51,0,0,1,342.55,328.41Z" transform="translate(-18.96 -51.95)"/><path class="cls-2" d="M342.55,328.41a7.64,7.64,0,0,1,2.29-3.46,2.93,2.93,0,0,1,3.83.13c-.75-2.29-1.54-4.56-2.38-6.83a10.52,10.52,0,0,0-2.78-4.68c-1.42-1.16-3.76-1.4-5,0a54.05,54.05,0,0,1,.28,15.81c-.37,2.84-.85,6.1,1.06,8.23.53.43,1.45-.34,1.11-.93-.16-.28-.72-.3-1-.28A51,51,0,0,1,342.55,328.41Z" transform="translate(-18.96 -51.95)"/><path class="cls-13" d="M342.55,328.41a7.64,7.64,0,0,1,2.29-3.46,2.93,2.93,0,0,1,3.83.13c-.75-2.29-1.54-4.56-2.38-6.83a10.52,10.52,0,0,0-2.78-4.68c-1.42-1.16-3.76-1.4-5,0a54.05,54.05,0,0,1,.28,15.81c-.37,2.84-.85,6.1,1.06,8.23.53.43,1.45-.34,1.11-.93-.16-.28-.72-.3-1-.28A51,51,0,0,1,342.55,328.41Z" transform="translate(-18.96 -51.95)"/><path class="cls-2" d="M326.59,323.67a27.64,27.64,0,0,0,.54,5.74,7.14,7.14,0,0,0,3.2,4.61c-1-3.72-.46-7.67.08-11.48l1-7a5.16,5.16,0,0,1,.71-2.32,1.81,1.81,0,0,1,2.11-.76c-1,.58-2.27-.2-2.87-1.18a29.41,29.41,0,0,0-1.53-3.08c-1.34-1.72-4.2-2.1-6.18-1.64C324.24,312.31,326.36,317.77,326.59,323.67Z" transform="translate(-18.96 -51.95)"/><path class="cls-2" d="M326.59,323.67a27.64,27.64,0,0,0,.54,5.74,7.14,7.14,0,0,0,3.2,4.61c-1-3.72-.46-7.67.08-11.48l1-7a5.16,5.16,0,0,1,.71-2.32,1.81,1.81,0,0,1,2.11-.76c-1,.58-2.27-.2-2.87-1.18a29.41,29.41,0,0,0-1.53-3.08c-1.34-1.72-4.2-2.1-6.18-1.64C324.24,312.31,326.36,317.77,326.59,323.67Z" transform="translate(-18.96 -51.95)"/><g class="cls-14"><path class="cls-4" d="M326.59,323.67a27.64,27.64,0,0,0,.54,5.74,7.14,7.14,0,0,0,3.2,4.61c-1-3.72-.46-7.67.08-11.48l1-7a5.16,5.16,0,0,1,.71-2.32,1.81,1.81,0,0,1,2.11-.76c-1,.58-2.27-.2-2.87-1.18a29.41,29.41,0,0,0-1.53-3.08c-1.34-1.72-4.2-2.1-6.18-1.64C324.24,312.31,326.36,317.77,326.59,323.67Z" transform="translate(-18.96 -51.95)"/></g><path class="cls-2" d="M310.27,308.25a3.54,3.54,0,0,1-1.06-2.1,3,3,0,0,0-1.17-2c-3.07,2-1.39,7.66-4.5,9.55-.6.37-1.37.58-1.7,1.2a1.58,1.58,0,0,0,.33,1.76,3,3,0,0,0,1.7.8,6.85,6.85,0,0,0,6.54-2.84c1.22-1.68,2.06-4.38,1.46-6.37A1.53,1.53,0,0,1,310.27,308.25Z" transform="translate(-18.96 -51.95)"/><path class="cls-2" d="M278.34,345.64c0,.21-.09.48.08.62s.61-.12.81-.4a5.35,5.35,0,0,1,5.95-1.93c.81,0,1.09-1.25.56-1.86a2.87,2.87,0,0,0-2.24-.72,4.35,4.35,0,0,1-2.36-.39,2.33,2.33,0,0,1-1-2.52C279.63,340.85,279,343.24,278.34,345.64Z" transform="translate(-18.96 -51.95)"/><g class="cls-14"><path class="cls-4" d="M310.27,308.25a3.54,3.54,0,0,1-1.06-2.1,3,3,0,0,0-1.17-2c-3.07,2-1.39,7.66-4.5,9.55-.6.37-1.37.58-1.7,1.2a1.58,1.58,0,0,0,.33,1.76,3,3,0,0,0,1.7.8,6.85,6.85,0,0,0,6.54-2.84c1.22-1.68,2.06-4.38,1.46-6.37A1.53,1.53,0,0,1,310.27,308.25Z" transform="translate(-18.96 -51.95)"/><path class="cls-4" d="M278.34,345.64c0,.21-.09.48.08.62s.61-.12.81-.4a5.35,5.35,0,0,1,5.95-1.93c.81,0,1.09-1.25.56-1.86a2.87,2.87,0,0,0-2.24-.72,4.35,4.35,0,0,1-2.36-.39,2.33,2.33,0,0,1-1-2.52C279.63,340.85,279,343.24,278.34,345.64Z" transform="translate(-18.96 -51.95)"/></g><path class="cls-2" d="M319.06,307.49c-1.75-.23-3.6-.28-5.13-1.17-1.9-1.12-3.21-3.5-5.42-3.6-2-.09-3.43,1.71-4.54,3.33a6.07,6.07,0,0,1,3.94-5.63,9.81,9.81,0,0,1,7.15.28,26.75,26.75,0,0,1,6.2,3.87,8.5,8.5,0,0,1,2.1,2C325.83,310.5,320.6,307.7,319.06,307.49Z" transform="translate(-18.96 -51.95)"/><path class="cls-13" d="M319.06,307.49c-1.75-.23-3.6-.28-5.13-1.17-1.9-1.12-3.21-3.5-5.42-3.6-2-.09-3.43,1.71-4.54,3.33a6.07,6.07,0,0,1,3.94-5.63,9.81,9.81,0,0,1,7.15.28,26.75,26.75,0,0,1,6.2,3.87,8.5,8.5,0,0,1,2.1,2C325.83,310.5,320.6,307.7,319.06,307.49Z" transform="translate(-18.96 -51.95)"/><path class="cls-2" d="M287.78,364.28a5.86,5.86,0,0,0,.32-.67A.75.75,0,0,0,287.78,364.28Z" transform="translate(-18.96 -51.95)"/><path class="cls-2" d="M290.75,348.79c-.2-2.46.15-4.94.05-7.41s-.75-5.07-2.55-6.77c-2.58-2.43-9.65-1.19-7.28,3.43a3,3,0,0,0,3.67,1.37,2.67,2.67,0,0,0,1.28-3.55l0-.06a12.81,12.81,0,0,1-.61,14.56,11.63,11.63,0,0,1,2.82,13.25,1.46,1.46,0,0,1,1.65,0,5.09,5.09,0,0,1,1.27,2.26c.35.81,1,1.65,1.88,1.59,1.2-2.95.81-6.3,0-9.38S291,352,290.75,348.79Z" transform="translate(-18.96 -51.95)"/><path class="cls-2" d="M316.62,302.42a10,10,0,0,0-4.73-2Z" transform="translate(-18.96 -51.95)"/><path class="cls-2" d="M328.38,333.71c-.38-1.7-1.17-3.28-1.64-5-1.09-3.91-.4-8.09-.9-12.12a20.94,20.94,0,0,0-7.43-13.45l-1.79-.76a10.07,10.07,0,0,1,3.6,5.24c1.39,4.78,1.82,9.76,2.44,14.7A198.29,198.29,0,0,0,326.81,345C328,341.32,329.21,337.46,328.38,333.71Z" transform="translate(-18.96 -51.95)"/><path class="cls-2" d="M309.34,315.93a6.29,6.29,0,0,0,2.11-4.11,17,17,0,0,0-.11-4.22,1.4,1.4,0,0,1-1.58.95,3.54,3.54,0,0,1-1.89-1.72l-.36,1.25-.15-.68-.48.61c.71,2,1.4,4.33.3,6.16a7.1,7.1,0,0,1-2.25,2.08A3.79,3.79,0,0,0,309.34,315.93Z" transform="translate(-18.96 -51.95)"/><path class="cls-2" d="M311.28,307.1l.06.5A.86.86,0,0,0,311.28,307.1Z" transform="translate(-18.96 -51.95)"/><path class="cls-2" d="M306.05,327.34c-3.5-6.89-7-13.78-10.87-20.48a66.46,66.46,0,0,0-7.64-11.17c-1.34-1.49-5.16-4.95-7.27-2.67-1.41,1.52.44,4.28-1.29,5.93.4,0,2.35-.19,2.56.07a30.36,30.36,0,0,1,6.71,19.39c1.41-1.11,3.35.43,4.45,1.85a326,326,0,0,1,19,27.1c-1.14-4.13-1.17-8.52-2.39-12.62A44.35,44.35,0,0,0,306.05,327.34Z" transform="translate(-18.96 -51.95)"/><path class="cls-2" d="M346.79,344.13a43.65,43.65,0,0,0,3.13-13.84,22.67,22.67,0,0,0-3.14-12.53c-.58-.93-3-4.77-4.29-4.46-2.35.56.73,4.64,1.27,5.66,2,3.85,4.11,7.92,4,12.27-.1,3.35-1.51,6.5-2.64,9.65a20.94,20.94,0,0,0-1.41,6.86c-.17.26-.33.53-.52.77a10.27,10.27,0,0,1-6.28,4.15c1-3,1.93-6,2.9-9,.35-1.07.47-2.53-.15-3.27a2.8,2.8,0,0,0,.31-1.3,6.8,6.8,0,0,0-.85-2.3c-1.34-2.88-.89-6.23-.56-9.39.4-3.9.55-7.91-.59-11.66s-3.79-7.23-7.51-8.47l1,1-1.26-.92,2.34,4.88-.86,1.23c1.29-.68,2.94.3,3.53,1.63a8.64,8.64,0,0,1,.29,4.31,86.2,86.2,0,0,0,1.18,24.26,11.7,11.7,0,0,1-1.44,5.33,5.24,5.24,0,0,1-5,2.71,5.26,5.26,0,0,0-1.93-5.33c-2,2.8-.82,7.15-.52,10.34a112.45,112.45,0,0,0,2.33,14.36,46.46,46.46,0,0,1,2.55-12q1.62,5.93,3.26,11.85a7,7,0,0,1,.62-3.23,2.41,2.41,0,0,1,2.76-1.28,3.43,3.43,0,0,1,1.65,2.06,36.74,36.74,0,0,1,2,21.63c1.34.75,3.12-.15,3.87-1.49a9,9,0,0,0,.71-4.5Q347.14,364.15,346.79,344.13Z" transform="translate(-18.96 -51.95)"/><path class="cls-2" d="M312.89,348.36c-.64,1.12,2,5.58,2.41,6.64l6.61,16.15a76.45,76.45,0,0,0-5.12-20.68C316.34,349.36,314.16,346.13,312.89,348.36Z" transform="translate(-18.96 -51.95)"/><path class="cls-2" d="M316.31,319.84c-.38.57-.91,1.27-1.56,1.07s-.72-1-.71-1.63q.1-5.61.19-11.23c-3,2.17-2.64,5-2.85,8.24-.12,1.87.42,10.8-.86,11.89a33.33,33.33,0,0,0,7.44-9.06C317.44,318.69,316.68,319.27,316.31,319.84Z" transform="translate(-18.96 -51.95)"/><g class="cls-14"><path class="cls-4" d="M287.78,364.28a5.86,5.86,0,0,0,.32-.67A.75.75,0,0,0,287.78,364.28Z" transform="translate(-18.96 -51.95)"/><path class="cls-4" d="M290.75,348.79c-.2-2.46.15-4.94.05-7.41s-.75-5.07-2.55-6.77c-2.58-2.43-9.65-1.19-7.28,3.43a3,3,0,0,0,3.67,1.37,2.67,2.67,0,0,0,1.28-3.55l0-.06a12.81,12.81,0,0,1-.61,14.56,11.63,11.63,0,0,1,2.82,13.25,1.46,1.46,0,0,1,1.65,0,5.09,5.09,0,0,1,1.27,2.26c.35.81,1,1.65,1.88,1.59,1.2-2.95.81-6.3,0-9.38S291,352,290.75,348.79Z" transform="translate(-18.96 -51.95)"/><path class="cls-4" d="M316.62,302.42a10,10,0,0,0-4.73-2Z" transform="translate(-18.96 -51.95)"/><path class="cls-4" d="M328.38,333.71c-.38-1.7-1.17-3.28-1.64-5-1.09-3.91-.4-8.09-.9-12.12a20.94,20.94,0,0,0-7.43-13.45l-1.79-.76a10.07,10.07,0,0,1,3.6,5.24c1.39,4.78,1.82,9.76,2.44,14.7A198.29,198.29,0,0,0,326.81,345C328,341.32,329.21,337.46,328.38,333.71Z" transform="translate(-18.96 -51.95)"/><path class="cls-4" d="M309.34,315.93a6.29,6.29,0,0,0,2.11-4.11,17,17,0,0,0-.11-4.22,1.4,1.4,0,0,1-1.58.95,3.54,3.54,0,0,1-1.89-1.72l-.36,1.25-.15-.68-.48.61c.71,2,1.4,4.33.3,6.16a7.1,7.1,0,0,1-2.25,2.08A3.79,3.79,0,0,0,309.34,315.93Z" transform="translate(-18.96 -51.95)"/><path class="cls-4" d="M311.28,307.1l.06.5A.86.86,0,0,0,311.28,307.1Z" transform="translate(-18.96 -51.95)"/><path class="cls-4" d="M306.05,327.34c-3.5-6.89-7-13.78-10.87-20.48a66.46,66.46,0,0,0-7.64-11.17c-1.34-1.49-5.16-4.95-7.27-2.67-1.41,1.52.44,4.28-1.29,5.93.4,0,2.35-.19,2.56.07a30.36,30.36,0,0,1,6.71,19.39c1.41-1.11,3.35.43,4.45,1.85a326,326,0,0,1,19,27.1c-1.14-4.13-1.17-8.52-2.39-12.62A44.35,44.35,0,0,0,306.05,327.34Z" transform="translate(-18.96 -51.95)"/><path class="cls-4" d="M346.79,344.13a43.65,43.65,0,0,0,3.13-13.84,22.67,22.67,0,0,0-3.14-12.53c-.58-.93-3-4.77-4.29-4.46-2.35.56.73,4.64,1.27,5.66,2,3.85,4.11,7.92,4,12.27-.1,3.35-1.51,6.5-2.64,9.65a20.94,20.94,0,0,0-1.41,6.86c-.17.26-.33.53-.52.77a10.27,10.27,0,0,1-6.28,4.15c1-3,1.93-6,2.9-9,.35-1.07.47-2.53-.15-3.27a2.8,2.8,0,0,0,.31-1.3,6.8,6.8,0,0,0-.85-2.3c-1.34-2.88-.89-6.23-.56-9.39.4-3.9.55-7.91-.59-11.66s-3.79-7.23-7.51-8.47l1,1-1.26-.92,2.34,4.88-.86,1.23c1.29-.68,2.94.3,3.53,1.63a8.64,8.64,0,0,1,.29,4.31,86.2,86.2,0,0,0,1.18,24.26,11.7,11.7,0,0,1-1.44,5.33,5.24,5.24,0,0,1-5,2.71,5.26,5.26,0,0,0-1.93-5.33c-2,2.8-.82,7.15-.52,10.34a112.45,112.45,0,0,0,2.33,14.36,46.46,46.46,0,0,1,2.55-12q1.62,5.93,3.26,11.85a7,7,0,0,1,.62-3.23,2.41,2.41,0,0,1,2.76-1.28,3.43,3.43,0,0,1,1.65,2.06,36.74,36.74,0,0,1,2,21.63c1.34.75,3.12-.15,3.87-1.49a9,9,0,0,0,.71-4.5Q347.14,364.15,346.79,344.13Z" transform="translate(-18.96 -51.95)"/><path class="cls-4" d="M312.89,348.36c-.64,1.12,2,5.58,2.41,6.64l6.61,16.15a76.45,76.45,0,0,0-5.12-20.68C316.34,349.36,314.16,346.13,312.89,348.36Z" transform="translate(-18.96 -51.95)"/><path class="cls-4" d="M316.31,319.84c-.38.57-.91,1.27-1.56,1.07s-.72-1-.71-1.63q.1-5.61.19-11.23c-3,2.17-2.64,5-2.85,8.24-.12,1.87.42,10.8-.86,11.89a33.33,33.33,0,0,0,7.44-9.06C317.44,318.69,316.68,319.27,316.31,319.84Z" transform="translate(-18.96 -51.95)"/></g></g><path class="cls-1" d="M324,307.59a78.52,78.52,0,0,1,2.72,20,10.58,10.58,0,0,0,.36,3.36,3.34,3.34,0,0,0,2.29,2.29" transform="translate(-18.96 -51.95)"/><path class="cls-1" d="M338.11,314.16c3,6.26-.07,20.25.15,21.23a3.52,3.52,0,0,0,1.69,2.4" transform="translate(-18.96 -51.95)"/><path class="cls-1" d="M312.33,306.74c-.35,2-.64,4.29-1,6.28a11.53,11.53,0,0,1-4-8" transform="translate(-18.96 -51.95)"/><path class="cls-1" d="M293.17,360.09,291,361" transform="translate(-18.96 -51.95)"/><path class="cls-1" d="M293.72,361.82a12.68,12.68,0,0,0,0,5.06" transform="translate(-18.96 -51.95)"/><path class="cls-1" d="M306.36,343.14c.8,1.43,1.59,2.87,2.39,4.31" transform="translate(-18.96 -51.95)"/><path class="cls-1" d="M311,327.36l2.38-3.36" transform="translate(-18.96 -51.95)"/><path class="cls-1" d="M344.43,343.14l-.72,2.63" transform="translate(-18.96 -51.95)"/><path class="cls-1" d="M338.61,335.93q1-3.36,2.11-6.72" transform="translate(-18.96 -51.95)"/><path class="cls-1" d="M345.65,324a2.71,2.71,0,0,1,3.64,1.13" transform="translate(-18.96 -51.95)"/><path class="cls-1" d="M331.28,312.53a5.16,5.16,0,0,1,4.81,1.1" transform="translate(-18.96 -51.95)"/><path class="cls-1" d="M286.74,319.2a7.28,7.28,0,0,1,6.2-2.34" transform="translate(-18.96 -51.95)"/><path class="cls-1" d="M277.71,300.34a6.69,6.69,0,0,1,5-1.18" transform="translate(-18.96 -51.95)"/><path class="cls-4" d="M279.57,345.09a12.78,12.78,0,0,0-2.93,3.29Z" transform="translate(-18.96 -51.95)"/><path class="cls-1" d="M280.53,340.55c1.58-1.13,4.1,1.39,5.55.1a2.3,2.3,0,0,0,.49-2.16,7.7,7.7,0,0,1-.29-2.29" transform="translate(-18.96 -51.95)"/><path class="cls-1" d="M325.12,333.61a18.16,18.16,0,0,1,1.1,12.82" transform="translate(-18.96 -51.95)"/><path class="cls-1" d="M336.74,339.78a8.31,8.31,0,0,1-1,5.5" transform="translate(-18.96 -51.95)"/><path class="cls-15" d="M321.11,436.09l-10.44-32.86c-9.8-10.09-27.8-19.32-29.36-33.3-2-17.94-4.77-17.21-4.77-21.67a55,55,0,0,0,2.76-6.8,36.79,36.79,0,0,0,1-5.41,3.65,3.65,0,0,1,3.84-3.12,6.17,6.17,0,0,1,3.49,1.36,9.36,9.36,0,0,1,3,6.31,27.43,27.43,0,0,1-.53,7.12,45.68,45.68,0,0,1,3.83,12.18c.85-3.36,1.44-6.73,2.28-10.09.22-.13.12-.39.32-.53-1.72-3.12-.44-3-3.89-9.95-5.81-11.64-12.18-22.81-17.19-37.59a8.7,8.7,0,0,1-.19-4.24c1.17-4.39,5.66-3.7,7.76-1.32a8.7,8.7,0,0,1,1.35,2.09,114.51,114.51,0,0,0,10.77,17.78l12,15.83s3.58-3.35,4.07-4.78h0c.47-1.43,0-12.69,0-12.69s-.72,2.16-2.63,2.16c-1.38,0-4.12,1-6.26-1.12a5.21,5.21,0,0,1-.61-6.52l4.47-7a7.48,7.48,0,0,1,7.66-1.44,36.43,36.43,0,0,1,9.1,5.51,17.82,17.82,0,0,1,7.66,1c3.6,1.45,7.57,6,7.57,6s4.07,0,6,1.17c.48.3,7.32,9.54,5.58,17.2-1,4.57-1.41,11.13-1.89,12.91l-.12,44.21,8.26,29.3" transform="translate(-18.96 -51.95)"/><path class="cls-15" d="M324,307.59a78.52,78.52,0,0,1,2.72,20,10.58,10.58,0,0,0,.36,3.36,3.34,3.34,0,0,0,2.29,2.29" transform="translate(-18.96 -51.95)"/><path class="cls-15" d="M338.11,314.16c3,6.26-.07,20.25.15,21.23a3.52,3.52,0,0,0,1.69,2.4" transform="translate(-18.96 -51.95)"/><path class="cls-15" d="M312.33,306.74c-.35,2-.64,4.29-1,6.28a11.53,11.53,0,0,1-4-8" transform="translate(-18.96 -51.95)"/><path class="cls-15" d="M293.17,360.09,291,361" transform="translate(-18.96 -51.95)"/><path class="cls-15" d="M293.72,361.82a12.68,12.68,0,0,0,0,5.06" transform="translate(-18.96 -51.95)"/><path class="cls-15" d="M306.36,343.14c.8,1.43,1.59,2.87,2.39,4.31" transform="translate(-18.96 -51.95)"/><path class="cls-15" d="M311,327.36l2.38-3.36" transform="translate(-18.96 -51.95)"/><path class="cls-15" d="M344.43,343.14l-.72,2.63" transform="translate(-18.96 -51.95)"/><path class="cls-15" d="M338.61,335.93q1-3.36,2.11-6.72" transform="translate(-18.96 -51.95)"/><path class="cls-15" d="M345.65,324a2.71,2.71,0,0,1,3.64,1.13" transform="translate(-18.96 -51.95)"/><path class="cls-15" d="M331.28,312.53a5.16,5.16,0,0,1,4.81,1.1" transform="translate(-18.96 -51.95)"/><path class="cls-15" d="M286.74,319.2a7.28,7.28,0,0,1,6.2-2.34" transform="translate(-18.96 -51.95)"/><path class="cls-15" d="M277.71,300.34a6.69,6.69,0,0,1,5-1.18" transform="translate(-18.96 -51.95)"/><path class="cls-15" d="M279.57,345.09a12.78,12.78,0,0,0-2.93,3.29" transform="translate(-18.96 -51.95)"/><path class="cls-15" d="M280.53,340.55c1.58-1.13,4.1,1.39,5.55.1a2.3,2.3,0,0,0,.49-2.16,7.7,7.7,0,0,1-.29-2.29" transform="translate(-18.96 -51.95)"/><path class="cls-15" d="M325.12,333.61a18.16,18.16,0,0,1,1.1,12.82" transform="translate(-18.96 -51.95)"/><path class="cls-15" d="M336.74,339.78a8.31,8.31,0,0,1-1,5.5" transform="translate(-18.96 -51.95)"/><path class="cls-6" d="M240.05,354.79a6.06,6.06,0,0,1-.09,2.08c-.65,3-2.53,11.78-3.22,16.58-.82,5.86-10.29,24-10.29,24s-8.72,10.84-13.16,16.48c-2.18,2.77-5.63,14-8.56,24.66q-5.55-1.68-11-3.62-4.5-1.61-9-3.37a146.16,146.16,0,0,1-15.62-7.6c1.66-6,2.77-10.67,2.75-10.94-.05-.63,3.56-7.58,3.56-7.58L172.27,364l-1.86-6.31a47.22,47.22,0,0,1-1.83-10,48.24,48.24,0,0,1,1.29-15.33l5.43-8.06,2.54-.19,7.86-11S190,311.83,191,315s-3.54,9.18-3.54,9.18l-1.59,9.87,3.78,9.24,2,.72s.66-16.27.21-19.52l4.1-14.79a69.58,69.58,0,0,0,3.26-7.46c.76-2.49,5.23-5,7.8-.59a6.43,6.43,0,0,1,.4,5.27c-1.05,3.05-1.92,5.45-1.92,5.45s-1,12.58-1.25,12.93,1.85,18.73,1.85,18.73l1.64.73.58-17.55,3.41-16.49s-.28-7.93,5.31-7a4.33,4.33,0,0,1,4.11,2.56c1.49,2.85.07,21.83.07,21.83l1.38,19.62,2.21,15.13,2.6-10.37s.15-14.86,9.53-16.13c0,0,2.79-.5,3.36,1.44s-1.39,5.9-1.11,9.7C239.48,350.23,239.86,353.24,240.05,354.79Z" transform="translate(-18.96 -51.95)"/><path class="cls-4" d="M237.2,336.42c-.43-2-3.24-1.69-3.24-1.69-9.45.56-10.72,15.37-10.72,15.37l-3.39,10.14-1-15.26.1-19.67s2.86-18.82,1.59-21.77a4.31,4.31,0,0,0-3.91-2.86c-5.5-1.38-5.82,6.55-5.82,6.55l-4.64,16.18-1.91,17.45-1.58-.84s-.75-18.52-.43-18.83,2.22-12.79,2.22-12.79,1.05-2.33,2.33-5.29a6.42,6.42,0,0,0,0-5.29c-2.23-4.54-6.87-2.42-7.83,0a71.45,71.45,0,0,1-3.8,7.19l-5.3,14.49c.2,3.28-1.68,19.46-1.68,19.46l-1.91-.87-3.07-9.5,2.34-9.73s5.07-5.6,4.22-8.88-5.18-2.32-5.18-2.32L175.88,318h-2.55l-6,7.61A48.3,48.3,0,0,0,166,350.9l1.38,6.43v41.56s-4.12,6.66-4.12,7.29c0,.29-1.7,5.54-4.07,12.09,10.37,6.1,19.3,10.82,25.63,13.31q4.5,1.77,9,3.37c3.8-10.67,8.24-22.08,10.69-24.75,4.86-5.28,14.38-15.44,14.38-15.44s10.81-17.37,12.08-23.14c1-4.74,3.58-13.35,4.46-16.3a5.8,5.8,0,0,0,.24-2.07c-.07-1.56-.22-4.59-.22-7.26C235.36,342.2,237.62,338.39,237.2,336.42Z" transform="translate(-18.96 -51.95)"/><g class="cls-16"><path class="cls-2" d="M172.3,332.24c1.62-2,4.94-2.79,6.82-1a7.14,7.14,0,0,1,1.71,4,8.63,8.63,0,0,0,1.51,4.12c1,1.13,2.89,1.57,3.9.49.14,2.19.27,4.38.41,6.57A26,26,0,0,0,190.09,333c0-2.27-.39-4.58.14-6.8s2.24-4.36,4.52-4.47c2.52-.11,4.51,2.34,5,4.82s-.08,5-.23,7.54a22.92,22.92,0,0,0,2.16,11.21l1.59-3.22c.48,2.16,1,4.31,1.43,6.46q.62-7.11,1.24-14.21a10.3,10.3,0,0,1,.87-3.9,3.47,3.47,0,0,1,3.21-2c1.8.18,2.84,2.1,3.44,3.8,4.51,12.75,2.65,26.74.74,40.12,1.25.23,2.31-1,2.62-2.27a29.59,29.59,0,0,1,.67-3.74c.47-1.19,1.91-2.16,3-1.48,1.58,1,.48,4.06,2.13,4.91a22.82,22.82,0,0,1,4.53-10.93c1.11-1.44,2.77-2.87,4.53-2.41a3.55,3.55,0,0,1,2.37,3c.19,1.34,2.13-4.2,1.79-2.89.76-7.71-.76-8.52,0-16.24.14-1.39,2.39-3.8,1.43-4.82s-3.63-2.4-4.84-1.84-5.13,2.52-5.91,3.59c-4.92,6.79-4.58,16.61-6.11,24.85-1.31-12.56-2.6-25.33-.3-37.74,1.27-6.85,3.61-14,1.4-20.59-1-3-3.69-6-6.82-5.46-2.52.46-4,3-5.07,5.36-3.44,7.9-5,16.48-6.48,25L208.76,303a17.45,17.45,0,0,0,.58-6.74c-.41-2.24-1.94-4.43-4.16-4.9s-4.4.84-6.06,2.36c-6,5.44-8.16,13.74-10.1,21.56a15.51,15.51,0,0,0,1.16-6.31c-.21-2.14-1.57-4.32-3.67-4.79-2.73-.59-5.2,1.84-6.4,4.35s-1.78,5.42-3.69,7.45c-1.39-1.56-4-1.47-5.74-.31a11.1,11.1,0,0,0-3.65,5,46.42,46.42,0,0,0-3.87,22.48,8.24,8.24,0,0,1,8.21-4.68c-.2-1.7-.39-3.4-.59-5.11" transform="translate(-18.96 -51.95)"/><path class="cls-2" d="M178.89,348.51c-.09,1.26-.17,2.52-.26,3.78a1.82,1.82,0,0,1,2.4-.92,1.72,1.72,0,0,1,.37.22,4.11,4.11,0,0,1,.63-2.34c.32-.76.35-1.84-.39-2.2s-1.74.58-2.21,1.44a7.75,7.75,0,0,0-.11-.94Z" transform="translate(-18.96 -51.95)"/><path class="cls-2" d="M193.23,346.25a8.76,8.76,0,0,0-2,4.18,4.35,4.35,0,0,1,1.47-1.08,1.48,1.48,0,0,1,1.66.38c.22.3.3.74.64.91a.78.78,0,0,0,1-.36,2.33,2.33,0,0,0,.25-1.1,6.1,6.1,0,0,0-.12-2.17,2.11,2.11,0,0,0-1.44-1.51,1.3,1.3,0,0,0-1.55,1,.43.43,0,0,0,0,.11Z" transform="translate(-18.96 -51.95)"/><path class="cls-2" d="M207.12,349.69a11.44,11.44,0,0,0-2.1,5,4.42,4.42,0,0,0,1.95-1.05,3.89,3.89,0,0,1,2-1,1.39,1.39,0,0,1,1.55,1.21h0a9.39,9.39,0,0,1,.08-2.54,5.38,5.38,0,0,0-.18-2.52,2.14,2.14,0,0,0-1.93-1.42,1.34,1.34,0,0,0-1.26,1.42,1.23,1.23,0,0,0,.08.38Z" transform="translate(-18.96 -51.95)"/><path class="cls-2" d="M168.91,354.71a10,10,0,0,0-1.17,4.7,1.65,1.65,0,0,1,1.47-1.46,3.29,3.29,0,0,1,2.13.57,5.76,5.76,0,0,0,.14-2.3,2,2,0,0,0-1.46-1.6c-.77-.12-1.61.61-1.4,1.35l-.23-.57Z" transform="translate(-18.96 -51.95)"/><path class="cls-13" d="M172.3,332.24c1.62-2,4.94-2.79,6.82-1a7.14,7.14,0,0,1,1.71,4,8.63,8.63,0,0,0,1.51,4.12c1,1.13,2.89,1.57,3.9.49.14,2.19.27,4.38.41,6.57A26,26,0,0,0,190.09,333c0-2.27-.39-4.58.14-6.8s2.24-4.36,4.52-4.47c2.52-.11,4.51,2.34,5,4.82s-.08,5-.23,7.54a22.92,22.92,0,0,0,2.16,11.21l1.59-3.22c.48,2.16,1,4.31,1.43,6.46q.62-7.11,1.24-14.21a10.3,10.3,0,0,1,.87-3.9,3.47,3.47,0,0,1,3.21-2c1.8.18,2.84,2.1,3.44,3.8,4.51,12.75,2.65,26.74.74,40.12,1.25.23,2.31-1,2.62-2.27a29.59,29.59,0,0,1,.67-3.74c.47-1.19,1.91-2.16,3-1.48,1.58,1,.48,4.06,2.13,4.91a22.82,22.82,0,0,1,4.53-10.93c1.11-1.44,2.77-2.87,4.53-2.41a3.55,3.55,0,0,1,2.37,3c.19,1.34,2.13-4.2,1.79-2.89.76-7.71-.76-8.52,0-16.24.14-1.39,2.39-3.8,1.43-4.82s-3.63-2.4-4.84-1.84-5.13,2.52-5.91,3.59c-4.92,6.79-4.58,16.61-6.11,24.85-1.31-12.56-2.6-25.33-.3-37.74,1.27-6.85,3.61-14,1.4-20.59-1-3-3.69-6-6.82-5.46-2.52.46-4,3-5.07,5.36-3.44,7.9-5,16.48-6.48,25L208.76,303a17.45,17.45,0,0,0,.58-6.74c-.41-2.24-1.94-4.43-4.16-4.9s-4.4.84-6.06,2.36c-6,5.44-8.16,13.74-10.1,21.56a15.51,15.51,0,0,0,1.16-6.31c-.21-2.14-1.57-4.32-3.67-4.79-2.73-.59-5.2,1.84-6.4,4.35s-1.78,5.42-3.69,7.45c-1.39-1.56-4-1.47-5.74-.31a11.1,11.1,0,0,0-3.65,5,46.42,46.42,0,0,0-3.87,22.48,8.24,8.24,0,0,1,8.21-4.68c-.2-1.7-.39-3.4-.59-5.11" transform="translate(-18.96 -51.95)"/><g class="cls-14"><path class="cls-4" d="M178.89,348.51c-.09,1.26-.17,2.52-.26,3.78a1.82,1.82,0,0,1,2.4-.92,1.72,1.72,0,0,1,.37.22,4.11,4.11,0,0,1,.63-2.34c.32-.76.35-1.84-.39-2.2s-1.74.58-2.21,1.44a7.75,7.75,0,0,0-.11-.94Z" transform="translate(-18.96 -51.95)"/><path class="cls-4" d="M193.23,346.25a8.76,8.76,0,0,0-2,4.18,4.35,4.35,0,0,1,1.47-1.08,1.48,1.48,0,0,1,1.66.38c.22.3.3.74.64.91a.78.78,0,0,0,1-.36,2.33,2.33,0,0,0,.25-1.1,6.1,6.1,0,0,0-.12-2.17,2.11,2.11,0,0,0-1.44-1.51,1.3,1.3,0,0,0-1.55,1,.43.43,0,0,0,0,.11Z" transform="translate(-18.96 -51.95)"/><path class="cls-4" d="M207.12,349.69a11.44,11.44,0,0,0-2.1,5,4.42,4.42,0,0,0,1.95-1.05,3.89,3.89,0,0,1,2-1,1.39,1.39,0,0,1,1.55,1.21h0a9.39,9.39,0,0,1,.08-2.54,5.38,5.38,0,0,0-.18-2.52,2.14,2.14,0,0,0-1.93-1.42,1.34,1.34,0,0,0-1.26,1.42,1.23,1.23,0,0,0,.08.38Z" transform="translate(-18.96 -51.95)"/><path class="cls-4" d="M168.91,354.71a10,10,0,0,0-1.17,4.7,1.65,1.65,0,0,1,1.47-1.46,3.29,3.29,0,0,1,2.13.57,5.76,5.76,0,0,0,.14-2.3,2,2,0,0,0-1.46-1.6c-.77-.12-1.61.61-1.4,1.35l-.23-.57Z" transform="translate(-18.96 -51.95)"/></g></g><path class="cls-15" d="M159.11,418.29c2.37-6.55,4.07-11.8,4.07-12.09,0-.63,4.12-7.29,4.12-7.29V357.35l-1.38-6.43a48.3,48.3,0,0,1,1.38-25.29l6-7.61h2.55l8.66-10.36s4.34-1,5.18,2.32-4.22,8.88-4.22,8.88l-2.34,9.73,3.07,9.5,1.91.87s1.88-16.18,1.68-19.46l5.3-14.49a71.45,71.45,0,0,0,3.8-7.19c1-2.42,5.6-4.54,7.83,0a6.42,6.42,0,0,1,0,5.29c-1.28,3-2.33,5.29-2.33,5.29s-1.9,12.47-2.22,12.79.43,18.83.43,18.83l1.58.84,1.91-17.45,4.64-16.18s.32-7.93,5.82-6.55a4.31,4.31,0,0,1,3.91,2.86c1.27,2.95-1.59,21.77-1.59,21.77L218.8,345l1,15.26,3.39-10.14s1.27-14.81,10.72-15.37c0,0,2.81-.29,3.24,1.69s-1.84,5.78-1.84,9.59c0,2.67.15,5.7.22,7.26a5.8,5.8,0,0,1-.24,2.07c-.88,3-3.42,11.56-4.46,16.3-1.27,5.77-12.08,23.14-12.08,23.14s-9.52,10.16-14.38,15.44c-2.45,2.67-6.89,14.08-10.69,24.75" transform="translate(-18.96 -51.95)"/><path class="cls-7" d="M188,340.52a6,6,0,0,1-1.42,5.7" transform="translate(-18.96 -51.95)"/><path class="cls-7" d="M171.84,354.5c1.37-2.12,2.71-5.05,2.34-7.55-.72-4.91-3-10.56-2-15.42.64-3.1,1.28-6.21,1.93-9.31" transform="translate(-18.96 -51.95)"/><path class="cls-15" d="M211.71,308.12a9.85,9.85,0,0,1,5,0,13.1,13.1,0,0,1,0-1.4" transform="translate(-18.96 -51.95)"/><path class="cls-15" d="M198.58,301.88A3.2,3.2,0,0,0,203,301a3.25,3.25,0,0,0,.55-1.82" transform="translate(-18.96 -51.95)"/><path class="cls-15" d="M234.72,336.59a6.13,6.13,0,0,0-4.59,6.33l2.45.74" transform="translate(-18.96 -51.95)"/><path class="cls-7" d="M202.54,337.81c.11,1.68-.1,5.69,0,7.37" transform="translate(-18.96 -51.95)"/><path class="cls-7" d="M204.38,340.14q-.3,4.11-.61,8.24v-1.05" transform="translate(-18.96 -51.95)"/><path class="cls-7" d="M219.64,363.31a13.74,13.74,0,0,1-.94,9.06" transform="translate(-18.96 -51.95)"/><path class="cls-15" d="M194.29,348.9c-2.18,2.39-1.86,8.13-.32,11.28" transform="translate(-18.96 -51.95)"/><path class="cls-15" d="M210.4,352.85a11.26,11.26,0,0,1-2.67,7.33" transform="translate(-18.96 -51.95)"/><path class="cls-15" d="M178.41,350a10.26,10.26,0,0,0,1.49,7" transform="translate(-18.96 -51.95)"/><path class="cls-15" d="M169.13,357.51a8.49,8.49,0,0,0,1.54,5.34" transform="translate(-18.96 -51.95)"/><path class="cls-15" d="M181.85,311.41a3.18,3.18,0,0,1,3.5.56l1.23-1.63" transform="translate(-18.96 -51.95)"/><path class="cls-15" d="M192.11,318.75a4.16,4.16,0,0,1,5.29.89" transform="translate(-18.96 -51.95)"/><path class="cls-15" d="M208.13,323.75a6.7,6.7,0,0,1,5.69.12" transform="translate(-18.96 -51.95)"/><path class="cls-15" d="M172.48,332.14a5.41,5.41,0,0,1,5.24-2.6" transform="translate(-18.96 -51.95)"/><path class="cls-15" d="M165.77,341.7a2.84,2.84,0,0,1,2.37-2.66" transform="translate(-18.96 -51.95)"/></g><g id="Coffee"><circle class="cls-17" cx="404.48" cy="176.44" r="41.45"/><path class="cls-6" d="M470.36,229.48c-8.84,14.49-12,12.53-42.12,27-15.31,7.34-30.1-16.23-20.09-40.42.49-1.18,4.81-7.15,4.81-7.15a22.08,22.08,0,0,1,38.58-9.12,23.86,23.86,0,0,1,21.18-5.06c.35,1,.68,2,1,3,.12.38.25.75.36,1.13.38,1.17.74,2.34,1.07,3.52q1,3.36,1.84,6.76a13.5,13.5,0,0,0-9.84.59c-2.21,1.08-4.06,2.86-6.36,3.74s-5.48.38-6.36-1.92c1.11,4.62,6,3.24,10.62,4.15C472.25,217.09,474.08,223.38,470.36,229.48Z" transform="translate(-18.96 -51.95)"/><path class="cls-18" d="M456.75,222.33s7.42-1,10.94-.47A6.78,6.78,0,0,1,472,224.3a2.37,2.37,0,0,1,.51,1.33l.4,5.8a2.37,2.37,0,0,1-.64,1.79c-1.45,1.51-5.82,4.26-18.76,5.25C435.28,239.86,456.75,222.33,456.75,222.33Z" transform="translate(-18.96 -51.95)"/><path class="cls-18" d="M451.32,207.34A27.69,27.69,0,0,1,457.4,225c0,6.91-8,30.51-28.49,33.39-21.69,3-39.13-15.52-35.41-37.86C396.08,205.05,433.91,185.7,451.32,207.34Z" transform="translate(-18.96 -51.95)"/><ellipse class="cls-4" cx="405.86" cy="171.46" rx="31.47" ry="29.79"/><ellipse class="cls-11" cx="405.8" cy="173.02" rx="25.84" ry="24.45"/><path class="cls-17" d="M456.29,223.41c0-16.45-14.09-29.78-31.47-29.78S393.35,207,393.35,223.41" transform="translate(-18.96 -51.95)"/><path class="cls-17" d="M448,243.57a28.81,28.81,0,0,0,8.3-20.16" transform="translate(-18.96 -51.95)"/><path class="cls-17" d="M402.78,244.67a32.28,32.28,0,0,0,22,8.53,32.87,32.87,0,0,0,14.61-3.39" transform="translate(-18.96 -51.95)"/><path class="cls-17" d="M398.24,239.36c.41.62.85,1.22,1.3,1.8" transform="translate(-18.96 -51.95)"/><path class="cls-17" d="M393.35,223.41a28.48,28.48,0,0,0,3,12.71" transform="translate(-18.96 -51.95)"/><path class="cls-18" d="M471,231.57s-5.61-3.93-14.72-.37" transform="translate(-18.96 -51.95)"/><path class="cls-18" d="M466.18,234.29a57.36,57.36,0,0,1-11.64,1.83" transform="translate(-18.96 -51.95)"/><path class="cls-18" d="M469.09,233.05a5.34,5.34,0,0,1-1.4.73" transform="translate(-18.96 -51.95)"/><path class="cls-4" d="M474.08,198.83c-.11-.38-.24-.75-.36-1.13-1.91-5.92-4.37-12.42-7.36-19.28-.55-1.27-1.13-2.56-1.71-3.86l-.67.06c-2.87.29-5.89.65-8.25,2.28s-3.77,5.07-2.24,7.52,5.43,3.78,4.81,6.55c-6.41,3.61-14.23,3.19-21.36,5A34.85,34.85,0,0,0,425,201.6h0a36.44,36.44,0,0,0-3.24,2.72,11.81,11.81,0,0,0-1.32,1.42h0a4.9,4.9,0,0,0-1.13,2.54c-.25,2.67,2.18,4.49,4.77,5.65a.58.58,0,0,1,.33.75.59.59,0,0,1-.33.33,14.85,14.85,0,0,0-4.67,2.7h0a1.16,1.16,0,0,0,1,2h.4a7.65,7.65,0,0,1,3,.36,3.63,3.63,0,0,1,2.71,2.86c.16,2-2.15,3.86-5.15,4.09-.73.07-.17.94.9,1.12a16.09,16.09,0,0,0,6.4-.52c2.51-.6,5.19-1.47,6.61-3.62a4.49,4.49,0,0,0,.6-3.18,3.22,3.22,0,0,0-2.66-2.92,87.72,87.72,0,0,0,13.72-2.75h0l1.41-.43a13.09,13.09,0,0,0,3.87-1.69,5.48,5.48,0,0,0,1.69-1.86c1-2-.43-5.19-2.65-4.77,6.45-2.53,13.27-4,19.79-6.34C472,199.67,473.06,199.27,474.08,198.83Z" transform="translate(-18.96 -51.95)"/></g><g id="Monitor"><path class="cls-6" d="M424.64,112.33a127.07,127.07,0,0,1-19.9,14c-36.41,21.54-77.54,34.44-119.38,40.73s-84.44,6.1-126.6,2.63c-8.28-.68-16.7-1.52-24.31-4.86-6.45-2.84-12.3-7.78-15-14.17,9.13-10.4,17.62-20.92,27.07-30.85q3.38-3.56,6.92-7c2-1.91,4-3.79,6.14-5.63C162,105.11,164.43,103,167,101c3.55-2.76,7.29-5.41,11.29-7.94,1-.63,2-1.24,2.93-1.84,99.71-62,173.1-41.74,222.06,0Q408.85,96,414,101c2.08,2,4.09,4.09,6,6.19.22.22.42.45.63.69Q422.7,110.12,424.64,112.33Z" transform="translate(-18.96 -51.95)"/><path class="cls-18" d="M428.58,102.39,93.11,103.92l5.07-7.61a13.17,13.17,0,0,1,10.94-5.85H412.68a13.14,13.14,0,0,1,10.24,4.91Z" transform="translate(-18.96 -51.95)"/><rect class="cls-19" x="195.2" y="100.72" width="86.68" height="86.68" rx="34.15"/><path class="cls-20" d="M229.91,203.34v12.32a7,7,0,0,0,7,7h42.27a7,7,0,0,0,7-6.95c.05-5.55.35-12.37.35-12.37Z" transform="translate(-18.96 -51.95)"/><path class="cls-21" d="M384.62,207.45H137.41a6.33,6.33,0,0,1-5.9-4L93.38,105.56a3.9,3.9,0,0,1,2.21-5,3.8,3.8,0,0,1,1.41-.27H425a3.91,3.91,0,0,1,3.91,3.89,3.86,3.86,0,0,1-.27,1.43l-38.13,97.86A6.32,6.32,0,0,1,384.62,207.45Z" transform="translate(-18.96 -51.95)"/><polygon class="cls-11" points="367.49 146.98 116.02 146.98 81.42 54.49 401.93 54.49 367.49 146.98"/><rect class="cls-11" x="211.22" y="155.37" width="56.06" height="3.84"/><path class="cls-2" d="M349.72,195H172.14c-1,0-1.9-.44-2.08-1L144.8,113.71c-.28-.9.51-1.63,1.77-1.63H375.29c1.26,0,2,.73,1.76,1.63L351.8,194A2.32,2.32,0,0,1,349.72,195Z" transform="translate(-18.96 -51.95)"/><polygon class="cls-11" points="330.1 141.18 153.84 141.18 132.37 70.67 351.57 70.67 330.1 141.18"/><path class="cls-4" d="M198.1,140.13H164.73c-.83,0-1.37.44-1.21,1a1.8,1.8,0,0,0,1.76,1h33.18c.82,0,1.4-.44,1.31-1S198.92,140.13,198.1,140.13Z" transform="translate(-18.96 -51.95)"/><path class="cls-4" d="M199.21,146.22H170.83c-.81,0-1.35.43-1.2,1a1.77,1.77,0,0,0,1.71.95h28.22c.81,0,1.38-.43,1.29-.95S200,146.22,199.21,146.22Z" transform="translate(-18.96 -51.95)"/><path class="cls-13" d="M200.29,152.1h-32.2c-.8,0-1.32.42-1.18.92a1.75,1.75,0,0,0,1.7.92h32c.79,0,1.36-.41,1.27-.92S201.09,152.1,200.29,152.1Z" transform="translate(-18.96 -51.95)"/><path class="cls-4" d="M201.33,157.78H182.42c-.78,0-1.32.4-1.2.89s.85.89,1.63.89h18.81c.78,0,1.34-.4,1.25-.89S202.11,157.78,201.33,157.78Z" transform="translate(-18.96 -51.95)"/><path class="cls-4" d="M202.34,163.26H171.22c-.76,0-1.28.39-1.14.87a1.68,1.68,0,0,0,1.63.85h30.94c.77,0,1.32-.38,1.24-.85S203.11,163.26,202.34,163.26Z" transform="translate(-18.96 -51.95)"/><path class="cls-4" d="M203.31,168.57H178.19c-.76,0-1.27.37-1.15.83s.83.83,1.58.83h25c.75,0,1.29-.37,1.21-.83S204.07,168.57,203.31,168.57Z" transform="translate(-18.96 -51.95)"/><path class="cls-4" d="M204.25,173.7H179.54c-.75,0-1.25.36-1.13.8s.81.81,1.55.81h24.59c.74,0,1.27-.36,1.19-.81S205,173.7,204.25,173.7Z" transform="translate(-18.96 -51.95)"/><path class="cls-4" d="M205.16,178.66h-27c-.73,0-1.23.35-1.11.78s.8.78,1.53.78h26.83c.73,0,1.26-.35,1.18-.78S205.9,178.66,205.16,178.66Z" transform="translate(-18.96 -51.95)"/><path class="cls-13" d="M206.05,183.47H188.63c-.72,0-1.22.34-1.12.76s.77.75,1.48.75h17.33c.72,0,1.24-.34,1.17-.75S206.77,183.47,206.05,183.47Z" transform="translate(-18.96 -51.95)"/><path class="cls-13" d="M196.94,133.81H172.07c-.84,0-1.4.46-1.25,1a1.8,1.8,0,0,0,1.77,1h24.72c.84,0,1.43-.45,1.33-1A1.66,1.66,0,0,0,196.94,133.81Z" transform="translate(-18.96 -51.95)"/><path class="cls-4" d="M195.73,127.26H161.11c-.85,0-1.41.48-1.24,1.07a1.92,1.92,0,0,0,1.84,1.06h34.41c.85,0,1.46-.48,1.35-1.06A1.69,1.69,0,0,0,195.73,127.26Z" transform="translate(-18.96 -51.95)"/><path class="cls-4" d="M206.9,188.13H178.21c-.71,0-1.19.33-1.08.73s.78.73,1.49.73h28.55c.7,0,1.22-.32,1.15-.73S207.61,188.13,206.9,188.13Z" transform="translate(-18.96 -51.95)"/><polygon class="cls-13" points="190.86 90.4 197.33 90.4 197.01 87.93 190.49 87.93 190.86 90.4"/><polygon class="cls-13" points="191.76 96.42 198.12 96.42 197.81 94.03 191.4 94.03 191.76 96.42"/><polygon class="cls-13" points="192.63 102.22 198.88 102.22 198.58 99.92 192.29 99.92 192.63 102.22"/><polygon class="cls-13" points="193.47 107.83 199.62 107.83 199.32 105.61 193.14 105.61 193.47 107.83"/><polygon class="cls-13" points="194.29 113.25 200.33 113.25 200.04 111.1 193.97 111.1 194.29 113.25"/><polygon class="cls-13" points="195.07 118.49 201.01 118.49 200.74 116.41 194.76 116.41 195.07 118.49"/><polygon class="cls-13" points="195.84 123.56 201.68 123.56 201.42 121.55 195.54 121.55 195.84 123.56"/><polygon class="cls-13" points="196.57 128.46 202.32 128.46 202.07 126.52 196.28 126.52 196.57 128.46"/><polygon class="cls-13" points="197.29 133.22 202.95 133.22 202.7 131.33 197 131.33 197.29 133.22"/><polygon class="cls-13" points="189.92 84.17 196.51 84.17 196.18 81.61 189.54 81.61 189.92 84.17"/><polygon class="cls-13" points="188.95 77.7 195.66 77.7 195.32 75.04 188.55 75.04 188.95 77.7"/><polygon class="cls-13" points="197.98 137.83 203.55 137.83 203.31 136 197.7 136 197.98 137.83"/><path class="cls-4" d="M251.05,179.44c0-.43.56-.78,1.29-.78h95.82c.73,0,1.22.35,1.1.78a1.62,1.62,0,0,1-1.54.78H252.39C251.66,180.22,251.06,179.87,251.05,179.44Z" transform="translate(-18.96 -51.95)"/><path class="cls-4" d="M349.13,175.31H296.07c-.74,0-1.3-.36-1.25-.81s.69-.8,1.44-.8h53.33c.74,0,1.24.36,1.11.8A1.64,1.64,0,0,1,349.13,175.31Z" transform="translate(-18.96 -51.95)"/><path class="cls-13" d="M283.48,175.31H267c-.74,0-1.34-.36-1.33-.81s.61-.8,1.36-.8H283.6c.74,0,1.32.36,1.28.8S284.22,175.31,283.48,175.31Z" transform="translate(-18.96 -51.95)"/><path class="cls-4" d="M317.92,170.23H243.08c-.75,0-1.38-.37-1.41-.83s.56-.83,1.32-.83h75.24c.75,0,1.3.37,1.21.83S318.68,170.23,317.92,170.23Z" transform="translate(-18.96 -51.95)"/><path class="cls-13" d="M227.43,168.57h5.34c.75,0,1.4.37,1.44.83s-.54.83-1.29.83h-5.31c-.75,0-1.4-.37-1.45-.83S226.68,168.57,227.43,168.57Z" transform="translate(-18.96 -51.95)"/><path class="cls-4" d="M328.75,164.13c-.1.47-.8.85-1.57.85H256.66c-.77,0-1.39-.38-1.4-.85s.61-.87,1.37-.87h70.91C328.31,163.26,328.85,163.65,328.75,164.13Z" transform="translate(-18.96 -51.95)"/><path class="cls-4" d="M226.87,163.26h20c.77,0,1.41.39,1.43.87s-.59.85-1.35.85h-19.9c-.76,0-1.42-.38-1.48-.85S226.1,163.26,226.87,163.26Z" transform="translate(-18.96 -51.95)"/><path class="cls-4" d="M226.28,157.78h76.94c.78,0,1.36.4,1.29.89s-.75.89-1.53.89H226.47c-.77,0-1.45-.4-1.5-.89S225.5,157.78,226.28,157.78Z" transform="translate(-18.96 -51.95)"/><path class="cls-4" d="M276.23,153.94c-.79,0-1.41-.41-1.39-.92s.68-.92,1.48-.92h40.59c.8,0,1.37.42,1.28.92s-.8.92-1.59.92Z" transform="translate(-18.96 -51.95)"/><path class="cls-4" d="M225.68,152.1h35.13c.8,0,1.44.42,1.44.92s-.65.92-1.44.92H225.88c-.8,0-1.48-.41-1.54-.92S224.88,152.1,225.68,152.1Z" transform="translate(-18.96 -51.95)"/><path class="cls-4" d="M356.93,148.13H260.22c-.8,0-1.46-.43-1.46-.95s.65-1,1.46-1h97.25c.81,0,1.34.43,1.19,1A1.82,1.82,0,0,1,356.93,148.13Z" transform="translate(-18.96 -51.95)"/><path class="cls-4" d="M358.65,142.11H273.56c-.82,0-1.47-.44-1.45-1s.7-1,1.52-1h85.59c.82,0,1.36.44,1.2,1A1.82,1.82,0,0,1,358.65,142.11Z" transform="translate(-18.96 -51.95)"/><path class="cls-13" d="M360.45,135.86H342.63c-.84,0-1.41-.45-1.28-1a1.76,1.76,0,0,1,1.76-1H361c.84,0,1.39.46,1.22,1A1.86,1.86,0,0,1,360.45,135.86Z" transform="translate(-18.96 -51.95)"/><path class="cls-4" d="M330.16,135.86H264.73c-.83,0-1.51-.45-1.5-1s.68-1,1.52-1h65.82c.84,0,1.42.46,1.31,1A1.7,1.7,0,0,1,330.16,135.86Z" transform="translate(-18.96 -51.95)"/><path class="cls-4" d="M229,183.47h60.43c.72,0,1.27.34,1.22.76s-.65.75-1.37.75H229.19c-.72,0-1.34-.34-1.39-.75S228.3,183.47,229,183.47Z" transform="translate(-18.96 -51.95)"/><path class="cls-4" d="M229.52,188.13h92.84c.7,0,1.21.33,1.12.73s-.72.73-1.43.73H229.68c-.71,0-1.32-.32-1.36-.73S228.81,188.13,229.52,188.13Z" transform="translate(-18.96 -51.95)"/><path class="cls-4" d="M326.91,129.39H279.65c-.85,0-1.51-.48-1.48-1.06s.74-1.07,1.6-1.07h47.54c.86,0,1.46.48,1.35,1.07A1.74,1.74,0,0,1,326.91,129.39Z" transform="translate(-18.96 -51.95)"/><path class="cls-13" d="M266.25,129.39h-43c-.85,0-1.6-.48-1.66-1.06s.57-1.07,1.43-1.07h43.25c.85,0,1.54.48,1.53,1.07S267.1,129.39,266.25,129.39Z" transform="translate(-18.96 -51.95)"/><path class="cls-13" d="M302.85,183.47c.72,0,1.26.34,1.2.76s-.69.75-1.41.75H298c-.71,0-1.25-.34-1.2-.75s.67-.76,1.39-.76Z" transform="translate(-18.96 -51.95)"/><path class="cls-13" d="M245.54,179.44c0,.43-.55.78-1.28.78H237.9c-.73,0-1.35-.35-1.38-.78s.53-.78,1.26-.78h6.39C244.9,178.66,245.52,179,245.54,179.44Z" transform="translate(-18.96 -51.95)"/><path class="cls-13" d="M322.29,158.67c-.09.49-.8.89-1.57.89h-7.44c-.78,0-1.34-.4-1.27-.89s.78-.89,1.56-.89h7.48C321.83,157.78,322.39,158.18,322.29,158.67Z" transform="translate(-18.96 -51.95)"/><path class="cls-13" d="M345.5,163.26c.77,0,1.29.39,1.16.87a1.66,1.66,0,0,1-1.61.85h-5.93c-.77,0-1.29-.38-1.18-.85a1.61,1.61,0,0,1,1.6-.87Z" transform="translate(-18.96 -51.95)"/><path class="cls-13" d="M248.51,148.13c-.8,0-1.47-.43-1.5-.95s.62-1,1.43-1h6.31c.81,0,1.47.43,1.48,1s-.64.95-1.44.95Z" transform="translate(-18.96 -51.95)"/><path class="cls-4" d="M162.57,117.34a2.13,2.13,0,0,1-2.1,3,4.44,4.44,0,0,1-3.94-3,2.14,2.14,0,0,1,1.07-2.82,2.19,2.19,0,0,1,1-.18A4.41,4.41,0,0,1,162.57,117.34Z" transform="translate(-18.96 -51.95)"/><path class="cls-4" d="M170.71,117.39a2.2,2.2,0,0,1-1.24,2.85,2.25,2.25,0,0,1-1,.15,4.28,4.28,0,0,1-3.84-3,2.21,2.21,0,0,1,1.27-2.86,2.17,2.17,0,0,1,.91-.14A4.23,4.23,0,0,1,170.71,117.39Z" transform="translate(-18.96 -51.95)"/><path class="cls-4" d="M178.94,117.34a2.26,2.26,0,0,1-1.41,2.88,2.21,2.21,0,0,1-.88.12,4.08,4.08,0,0,1-3.75-3,2.29,2.29,0,0,1,1.44-2.89,2.4,2.4,0,0,1,.84-.11A4.07,4.07,0,0,1,178.94,117.34Z" transform="translate(-18.96 -51.95)"/><polygon class="cls-22" points="81.42 54.49 108.37 126.52 140.88 54.49 81.42 54.49"/><polygon class="cls-22" points="126.89 146.98 180.82 54.49 237.27 54.49 157.9 146.98 126.89 146.98"/><polygon class="cls-22" points="261.6 54.03 177.54 146.98 190.49 146.98 277.56 54.49 261.6 54.03"/><polygon class="cls-22" points="278.2 146.98 370.58 54.49 383.62 54.49 288.37 146.98 278.2 146.98"/></g><g id="Code"><path class="cls-18" d="M171.9,239.07H150.81a5,5,0,0,0-5,5v10.26a5,5,0,0,0,5,5h5.51l4.18,9.47,5.89-9.47h5.51a5,5,0,0,0,5-5V244A5,5,0,0,0,171.9,239.07Z" transform="translate(-18.96 -51.95)"/><path class="cls-11" d="M158.42,244.94a1,1,0,1,1,1,.93A1,1,0,0,1,158.42,244.94Zm.22,2.09h1.61v6.86h-1.61Z" transform="translate(-18.96 -51.95)"/><path class="cls-11" d="M164.12,246.67v.41H166v1.29h-1.83v5.52h-1.61v-5.52h-1.13v-1.29h1.13v-.43a2.23,2.23,0,0,1,2-2.39,2.81,2.81,0,0,1,.41,0,2.67,2.67,0,0,1,1.46.37l-.45,1.21a1.57,1.57,0,0,0-.89-.28C164.47,245.57,164.12,245.94,164.12,246.67Z" transform="translate(-18.96 -51.95)"/><path class="cls-18" d="M236.12,240.5H215a5,5,0,0,0-5,5v10.27a5,5,0,0,0,5,5h5.52l4.17,9.47,5.89-9.47h5.52a5,5,0,0,0,5-5V245.46A5,5,0,0,0,236.12,240.5Z" transform="translate(-18.96 -51.95)"/><path class="cls-11" d="M219.46,252.41h-5.39a2.07,2.07,0,0,0,2.23,1.65,2.46,2.46,0,0,0,1.86-.75l.86,1a3.86,3.86,0,0,1-6.55-2.4,3.41,3.41,0,0,1,3.31-3.51H216a3.33,3.33,0,0,1,3.47,3.2,2,2,0,0,1,0,.35C219.48,252.07,219.47,252.26,219.46,252.41Zm-5.4-1.06H218a1.86,1.86,0,0,0-1.94-1.67,1.89,1.89,0,0,0-2,1.67Z" transform="translate(-18.96 -51.95)"/><path class="cls-11" d="M221,245.8h1.61v9.53H221Z" transform="translate(-18.96 -51.95)"/><path class="cls-11" d="M224,254.65l.61-1.22a4.6,4.6,0,0,0,2.39.68c1,0,1.44-.28,1.44-.76,0-1.31-4.24-.08-4.24-2.81,0-1.3,1.17-2.15,3-2.15a5.6,5.6,0,0,1,2.57.59l-.62,1.22a3.8,3.8,0,0,0-2-.51c-1,0-1.44.32-1.44.77,0,1.39,4.24.15,4.24,2.84,0,1.28-1.18,2.12-3.11,2.12A5.46,5.46,0,0,1,224,254.65Z" transform="translate(-18.96 -51.95)"/><path class="cls-11" d="M237.77,252.41h-5.39a2.07,2.07,0,0,0,2.23,1.65,2.46,2.46,0,0,0,1.86-.75l.86,1a3.86,3.86,0,0,1-6.55-2.4,3.41,3.41,0,0,1,3.31-3.51h.23a3.33,3.33,0,0,1,3.47,3.2,2,2,0,0,1,0,.35C237.79,252.07,237.78,252.26,237.77,252.41Zm-5.4-1.06h3.89a1.86,1.86,0,0,0-1.94-1.67,1.88,1.88,0,0,0-1.95,1.67Z" transform="translate(-18.96 -51.95)"/><path class="cls-18" d="M298.38,239.9h-21.1a5,5,0,0,0-5,4.95v10.27a5,5,0,0,0,5,5h5.52l4.17,9.47,5.89-9.47h5.52a5,5,0,0,0,5-5h0V244.85A5,5,0,0,0,298.38,239.9Z" transform="translate(-18.96 -51.95)"/><path class="cls-11" d="M282.12,247.5v.41H284v1.29h-1.84v5.52h-1.6V249.2h-1.13v-1.29h1.13v-.43a2.22,2.22,0,0,1,2-2.38,1.78,1.78,0,0,1,.4,0,2.48,2.48,0,0,1,1.45.37l-.45,1.21a1.53,1.53,0,0,0-.88-.28C282.47,246.4,282.12,246.77,282.12,247.5Z" transform="translate(-18.96 -51.95)"/><path class="cls-11" d="M284.42,251.29a3.66,3.66,0,1,1,3.8,3.52h-.15a3.46,3.46,0,0,1-3.65-3.26Zm5.69,0a2,2,0,1,0-2,2.15,2,2,0,0,0,2-2c0-.06,0-.11,0-.16Z" transform="translate(-18.96 -51.95)"/><path class="cls-11" d="M297.23,247.78v1.53h-.37a1.87,1.87,0,0,0-2,1.72,1.79,1.79,0,0,0,0,.4v3.33h-1.61V247.9h1.53v1A2.71,2.71,0,0,1,297.23,247.78Z" transform="translate(-18.96 -51.95)"/><path class="cls-18" d="M359.74,239.07h-21.1a5,5,0,0,0-5,5v10.26a5,5,0,0,0,5,5h5.52l4.17,9.47,5.89-9.47h5.52a5,5,0,0,0,5-5V244A5,5,0,0,0,359.74,239.07Z" transform="translate(-18.96 -51.95)"/><path class="cls-11" d="M346.45,246.69h5.92V248h-5.92Zm0,3.11h5.92v1.29h-5.92Z" transform="translate(-18.96 -51.95)"/><path class="cls-18" d="M204.06,227.19H183a5,5,0,0,0-5,5v10.26a5,5,0,0,0,5,5h5.52l4.17,9.47,5.89-9.47h5.52a5,5,0,0,0,5-5v-10.3a5,5,0,0,0-5-5Z" transform="translate(-18.96 -51.95)"/><path class="cls-11" d="M188.55,231.45h3.07v1.29h-1.47v9.45h1.47v1.29h-3.07Z" transform="translate(-18.96 -51.95)"/><path class="cls-11" d="M195.6,243.48v-1.29h1.45v-9.45H195.6v-1.29h3.05v12Z" transform="translate(-18.96 -51.95)"/><path class="cls-18" d="M266.78,226.14h-21.1a5,5,0,0,0-5,5V241.4a5,5,0,0,0,5,5h5.52l4.18,9.47,5.89-9.47h5.51a5,5,0,0,0,5-5V231.1A5,5,0,0,0,266.78,226.14Z" transform="translate(-18.96 -51.95)"/><path class="cls-11" d="M251.94,236.38c.51.16.76.51.76,1.31v2.44a.86.86,0,0,0,.69,1,.81.81,0,0,0,.31,0H254v1.29h-.65a1.9,1.9,0,0,1-2.17-1.61,1.61,1.61,0,0,1,0-.49v-2.64c0-.43-.22-.62-.58-.62h-.42v-1.31h.42c.36,0,.58-.19.58-.62v-2.64a1.91,1.91,0,0,1,1.69-2.11,2,2,0,0,1,.49,0H254v1.29h-.27a.86.86,0,0,0-1,.69.81.81,0,0,0,0,.31v2.44C252.7,235.86,252.45,236.21,251.94,236.38Z" transform="translate(-18.96 -51.95)"/><path class="cls-11" d="M261.74,235.72V237h-.44c-.35,0-.57.19-.57.62v2.64a1.91,1.91,0,0,1-1.69,2.11,1.68,1.68,0,0,1-.5,0h-.65V241.1h.27a.87.87,0,0,0,1-.72.66.66,0,0,0,0-.28v-2.44c0-.8.23-1.15.74-1.31-.51-.17-.74-.52-.74-1.32v-2.44a.87.87,0,0,0-.72-1,.66.66,0,0,0-.28,0h-.27V230.3h.65a1.91,1.91,0,0,1,2.18,1.6,1.67,1.67,0,0,1,0,.5V235c0,.43.22.62.57.62Z" transform="translate(-18.96 -51.95)"/><path class="cls-18" d="M328.84,224.06h-21.1a5,5,0,0,0-5,5v10.26a5,5,0,0,0,5,5h5.51l4.18,9.47,5.89-9.47h5.52a5,5,0,0,0,5-5V229A5,5,0,0,0,328.84,224.06Z" transform="translate(-18.96 -51.95)"/><path class="cls-11" d="M317.45,231.66a1.06,1.06,0,1,1,2.11-.21.74.74,0,0,1,0,.21,1.06,1.06,0,0,1-2.11.21A.74.74,0,0,1,317.45,231.66Zm2.11,4.89a3.05,3.05,0,0,1-.3,1.11l-.66,1.81h-1l.52-2a1,1,0,0,1-.61-.95,1,1,0,0,1,2.09,0Z" transform="translate(-18.96 -51.95)"/><path class="cls-18" d="M246.36,403.5h21.09a5,5,0,0,0,5-5V388.28a5,5,0,0,0-5-5h-5.51l-1.61-9.47-8.46,9.47h-5.51a5,5,0,0,0-5,5v10.26A5,5,0,0,0,246.36,403.5Z" transform="translate(-18.96 -51.95)"/><path class="cls-11" d="M253.77,391.3l-4.43,1.7,4.43,1.65V396l-5.92-2.3v-1.39l5.92-2.3Z" transform="translate(-18.96 -51.95)"/><path class="cls-11" d="M258.45,386.63h1.43l-4.24,12.11h-1.43Z" transform="translate(-18.96 -51.95)"/><path class="cls-11" d="M266.11,392.26v1.39l-5.92,2.3v-1.34l4.43-1.65-4.43-1.66V390Z" transform="translate(-18.96 -51.95)"/><path class="cls-18" d="M112.24,328.75h21.09a5,5,0,0,0,5-4.95V313.53a5,5,0,0,0-5-5h-5.51l1.2-9.47-11.27,9.47h-5.51a5,5,0,0,0-5,5V323.8A5,5,0,0,0,112.24,328.75Z" transform="translate(-18.96 -51.95)"/><path class="cls-11" d="M118.49,322.25a1,1,0,1,1,1,1A1,1,0,0,1,118.49,322.25Zm.09-8.09h1.9l-.32,6h-1.27Z" transform="translate(-18.96 -51.95)"/><path class="cls-11" d="M122.14,316.46h5.92v1.29h-5.92Zm0,3.11h5.92v1.29h-5.92Z" transform="translate(-18.96 -51.95)"/></g><g id="Mouse"><path class="cls-4" d="M450,317.12A71.47,71.47,0,0,1,449,329c-2.9,17.31-12,29.93-22.76,29.93a13.75,13.75,0,0,1-2.86-.3c-11.75-2.49-20.86-20.11-20.86-41.49,0-23.08,10.62-31.25,23.72-31.25S450,294,450,317.12Z" transform="translate(-18.96 -51.95)"/><g class="cls-23"><path class="cls-2" d="M441.43,317.38c.88,12.38-1.24,24.82-4.81,36.71,8.94-7.34,13.05-18.88,16.77-29.83,2.7-7.95,5.43-16.15,4.94-24.53s-5-17.11-12.84-20a17.13,17.13,0,0,0-12.13.19c-6.59,2.65-3,4.79-.21,9.53A64.65,64.65,0,0,1,441.43,317.38Z" transform="translate(-18.96 -51.95)"/><path class="cls-13" d="M441.43,317.38c.88,12.38-1.24,24.82-4.81,36.71,8.94-7.34,13.05-18.88,16.77-29.83,2.7-7.95,5.43-16.15,4.94-24.53s-5-17.11-12.84-20a17.13,17.13,0,0,0-12.13.19c-6.59,2.65-3,4.79-.21,9.53A64.65,64.65,0,0,1,441.43,317.38Z" transform="translate(-18.96 -51.95)"/></g><path class="cls-15" d="M450,317.12A71.47,71.47,0,0,1,449,329c-2.9,17.31-12,29.93-22.76,29.93a13.75,13.75,0,0,1-2.86-.3c-11.75-2.49-20.86-20.11-20.86-41.49,0-23.08,10.62-31.25,23.72-31.25S450,294,450,317.12Z" transform="translate(-18.96 -51.95)"/><path class="cls-7" d="M439.05,338.35a41.06,41.06,0,0,1-7.79,14.6" transform="translate(-18.96 -51.95)"/><path class="cls-15" d="M439.8,335.45c-.12.56-.26,1.12-.41,1.68" transform="translate(-18.96 -51.95)"/><path class="cls-7" d="M439.74,317.06a40.77,40.77,0,0,1,.47,16.28" transform="translate(-18.96 -51.95)"/><path class="cls-15" d="M402.57,317.12s27-10.66,47.46,0" transform="translate(-18.96 -51.95)"/><path class="cls-7" d="M426.3,285.87s2.7,10,3,26.27" transform="translate(-18.96 -51.95)"/><path class="cls-21" d="M430.07,298c.34,3.11-.2,5.75-1.21,5.91s-2.11-2.23-2.45-5.33.19-5.76,1.2-5.92S429.72,294.93,430.07,298Z" transform="translate(-18.96 -51.95)"/><path class="cls-15" d="M415.66,366.91H384a7.74,7.74,0,0,1-7.69-6.71,4.79,4.79,0,0,1-.09-1.07V284.54a6.56,6.56,0,0,1,.09-1.08,7.74,7.74,0,0,1,7.69-6.7h89.72a7.63,7.63,0,0,1,3.73,1" transform="translate(-18.96 -51.95)"/></g></svg>