<svg id="Layer_1" data-name="Layer 1" xmlns="http://www.w3.org/2000/svg" viewBox="0 0 391.57 289.56"><defs><style>.cls-1{fill:#333;}</style></defs><title>scp-logo-black</title><path class="cls-1" d="M862,684.78q-24.1,0-38.1-6.22T803.87,660q-6.06-12.37-6.06-33.21V581.83q0-13.83-3.5-21.54a20.62,20.62,0,0,0-10.5-10.8q-7-3.12-19.6-3.11V533.62q12.45,0,19.44-3.11a20.9,20.9,0,0,0,10.58-10.73q3.57-7.6,3.58-21.61V453.23q0-20.84,6.06-33.2t20.06-18.59q14-6.21,38.1-6.22h4v12.6q-12.29,0-18.43,1.32a27.41,27.41,0,0,0-9.95,4A21.43,21.43,0,0,0,831.4,420a36,36,0,0,0-3.89,11.66,111.8,111.8,0,0,0-1.4,19.75v30.17q0,15.71-2.72,26.2a42.54,42.54,0,0,1-9.72,18.2q-7,7.7-19.13,12.67v2.8a51.72,51.72,0,0,1,19.05,12.75,42.31,42.31,0,0,1,9.88,18.59,108.38,108.38,0,0,1,2.64,25.73v30.17a111.8,111.8,0,0,0,1.4,19.75,36,36,0,0,0,3.89,11.66,21.43,21.43,0,0,0,6.29,6.84,27.41,27.41,0,0,0,9.95,4q6.15,1.32,18.43,1.32v12.6Z" transform="translate(-764.21 -395.22)"/><path class="cls-1" d="M922.06,448.17l53.34,80.56v9.17l-59.88,82.57H986q13.53,0,19.6-6.06t9.95-27.52h15.55l-3.42,59.24H880.23v-7.62l69.66-95.79L884.58,441.48v-7.61h143.69v54.27h-14.62q-6.37-25-13.14-32.5T981,448.17Z" transform="translate(-764.21 -395.22)"/><path class="cls-1" d="M1058,395.22q24.1,0,38.1,6.22T1116.13,420q6.06,12.36,6.07,33.2v44.94q0,14,3.57,21.61a20.9,20.9,0,0,0,10.58,10.73q7,3.12,19.44,3.11v12.76q-12.6,0-19.6,3.11a20.62,20.62,0,0,0-10.5,10.8q-3.5,7.71-3.49,21.54v44.94q0,20.85-6.07,33.21t-20.06,18.58q-14,6.21-38.1,6.22h-4v-12.6q12.28,0,18.43-1.32a27.41,27.41,0,0,0,10-4,21.43,21.43,0,0,0,6.29-6.84,36.24,36.24,0,0,0,3.89-11.66,110.84,110.84,0,0,0,1.4-19.75V598.47q0-15.71,2.72-26.2a42.6,42.6,0,0,1,9.72-18.2q7-7.7,19.13-12.67v-2.8a51.6,51.6,0,0,1-19-12.75,42.21,42.21,0,0,1-9.87-18.58q-2.65-10.65-2.65-25.74V451.36a110.84,110.84,0,0,0-1.4-19.75A36.24,36.24,0,0,0,1088.6,420a21.43,21.43,0,0,0-6.29-6.84,27.41,27.41,0,0,0-10-4q-6.15-1.32-18.43-1.32v-12.6Z" transform="translate(-764.21 -395.22)"/></svg>