<svg id="Layer_1" data-name="Layer 1" xmlns="http://www.w3.org/2000/svg" viewBox="0 0 691.7 97.73"><defs><style>.cls-1{fill:#22b573;}</style></defs><title>scp-logo-full-green</title><path class="cls-1" d="M31.81,86.76A54.68,54.68,0,0,1,17.47,85,41.49,41.49,0,0,1,4.75,78.88V61.65H15.81l1.51,10.13a16.13,16.13,0,0,0,6.05,3,29.49,29.49,0,0,0,8.44,1.15q5.82,0,8.9-2.37a7.69,7.69,0,0,0,3.09-6.44,8.32,8.32,0,0,0-2.91-6.43Q38,58.09,30.68,55.83,18,52.16,11.79,47.12T5.58,33.32a17,17,0,0,1,3.2-10.2,21.54,21.54,0,0,1,8.89-7A33,33,0,0,1,30.78,13.5a45.59,45.59,0,0,1,14.56,2,34.54,34.54,0,0,1,10.94,5.72v16H45.56L43.7,27.45a19,19,0,0,0-5-2.06,27,27,0,0,0-7.17-.88,14.33,14.33,0,0,0-8.41,2.3,7.44,7.44,0,0,0-3.28,6.46,7.26,7.26,0,0,0,3.06,5.95q3.06,2.37,11.28,5Q46,47.52,52,52.89A18,18,0,0,1,58.14,67a17.16,17.16,0,0,1-3.28,10.52,21,21,0,0,1-9.23,6.8A36.73,36.73,0,0,1,31.81,86.76Z" transform="translate(-4.75 -9.39)"/><path class="cls-1" d="M63.67,85.73V77.17l6.89-1.47V42.86l-7.63-1.47V32.78H84.85V75.7l6.86,1.47v8.56Zm6.41-64.15V9.39H84.85V21.58Z" transform="translate(-4.75 -9.39)"/><path class="cls-1" d="M119.79,107.12a44.25,44.25,0,0,1-9-1.06,38,38,0,0,1-8.81-2.91L104.62,93a41.17,41.17,0,0,0,7.27,2.33,33.08,33.08,0,0,0,7.17.85c3.82,0,6.61-1.06,8.39-3.18s2.67-5.07,2.67-8.85V80.64a15.54,15.54,0,0,1-12.82,6.12,18.75,18.75,0,0,1-11.11-3.26,20.67,20.67,0,0,1-7.07-9.12,35,35,0,0,1-2.47-13.66v-1a40.17,40.17,0,0,1,2.44-14.64,22.21,22.21,0,0,1,7-9.76A17.4,17.4,0,0,1,117,31.8a16.09,16.09,0,0,1,8.18,2A17.43,17.43,0,0,1,131,39.44l1-6.66h18.64v8.61l-6.21,1.33V84.16q0,10.47-6.58,16.72T119.79,107.12Zm1.52-31.47q6,0,8.81-4.7V48a9.46,9.46,0,0,0-8.76-5,8.36,8.36,0,0,0-8,4.65q-2.47,4.65-2.47,12.14v1q0,7,2.39,10.94T121.31,75.65Z" transform="translate(-4.75 -9.39)"/><path class="cls-1" d="M154.54,85.73V77.17l6.9-1.47V42.86l-7.64-1.47V32.78h20.9l.59,7a17.72,17.72,0,0,1,6.38-5.9,18.43,18.43,0,0,1,8.88-2.08,16.21,16.21,0,0,1,8.72,2.25,14,14,0,0,1,5.48,6.81,18.35,18.35,0,0,1,6.36-6.66,17.23,17.23,0,0,1,9.2-2.4q7.83,0,12.35,5.34t4.53,16.24V75.7l6.9,1.47v8.56H216.74V77.17l6.16-1.47V53.33c0-3.88-.64-6.58-1.93-8.12a6.92,6.92,0,0,0-5.6-2.3,8.57,8.57,0,0,0-5.63,1.89,10.54,10.54,0,0,0-3.33,5V75.7l5.77,1.47v8.56H186.4V77.17l5.77-1.47V53.33q0-5.71-1.93-8.07a7,7,0,0,0-5.7-2.35,9.72,9.72,0,0,0-8.86,4.75v28l6.16,1.47v8.56Z" transform="translate(-4.75 -9.39)"/><path class="cls-1" d="M266.6,86.76q-7.87,0-12.53-4.23T249.42,71a14.68,14.68,0,0,1,6.05-12.13q6-4.71,17.79-4.7h7V50.25A8.7,8.7,0,0,0,278,44.06c-1.49-1.58-3.71-2.37-6.68-2.37a14.3,14.3,0,0,0-4.14.56,12,12,0,0,0-3.3,1.59l-1.13,7H252.51l-.2-13.75a44.3,44.3,0,0,1,9-3.82,37.14,37.14,0,0,1,10.81-1.47q10.38,0,16.39,4.85t6,13.75V72.22c0,.72,0,1.42,0,2.11a15.74,15.74,0,0,0,.17,2l5.53.79v8.56H282.55c-.36-.91-.71-1.89-1.07-2.94a18.64,18.64,0,0,1-.79-3.13,19.9,19.9,0,0,1-6,5.16A16.29,16.29,0,0,1,266.6,86.76Zm3.82-10.57a12.34,12.34,0,0,0,5.65-1.35,10.83,10.83,0,0,0,4.18-3.55V62.93h-7c-3.13,0-5.51.71-7.12,2.15a6.69,6.69,0,0,0-2.43,5.19,5.48,5.48,0,0,0,1.79,4.38A7.41,7.41,0,0,0,270.42,76.19Z" transform="translate(-4.75 -9.39)"/><path class="cls-1" d="M338.93,86.76a36.19,36.19,0,0,1-18.08-4.33A29.63,29.63,0,0,1,309,70.14q-4.19-7.95-4.18-18.81v-2.4a40.22,40.22,0,0,1,4-18.37A30.42,30.42,0,0,1,320.36,18q7.45-4.54,17.83-4.55a43.84,43.84,0,0,1,13.56,2.06,33.42,33.42,0,0,1,11.35,6.26V39H352.48L351,28.18a20.79,20.79,0,0,0-5.53-2.71,22.31,22.31,0,0,0-6.94-1q-9.06,0-14.24,6.58t-5.19,17.79v2.5q0,11.25,5.38,17.86t14.68,6.61a27.87,27.87,0,0,0,6.19-.71A31.47,31.47,0,0,0,351,73.25l1.47-10H363.1v17a39.54,39.54,0,0,1-10.37,4.62A47.38,47.38,0,0,1,338.93,86.76Z" transform="translate(-4.75 -9.39)"/><path class="cls-1" d="M395.25,86.76a25.31,25.31,0,0,1-13.48-3.43,22.47,22.47,0,0,1-8.59-9.52,31.46,31.46,0,0,1-3-14v-1a31.33,31.33,0,0,1,3-14,22.66,22.66,0,0,1,8.59-9.55,25,25,0,0,1,13.38-3.45,25.33,25.33,0,0,1,13.44,3.43,22.53,22.53,0,0,1,8.59,9.52,31.46,31.46,0,0,1,3,14v1a31.46,31.46,0,0,1-3,14,22.49,22.49,0,0,1-8.57,9.52A25,25,0,0,1,395.25,86.76Zm0-11a8.69,8.69,0,0,0,8.1-4.41q2.56-4.4,2.57-11.6v-1q0-7.05-2.59-11.5a8.79,8.79,0,0,0-8.18-4.46A8.68,8.68,0,0,0,387,47.27q-2.55,4.45-2.54,11.5v1q0,7.25,2.54,11.63T395.25,75.8Z" transform="translate(-4.75 -9.39)"/><path class="cls-1" d="M447.37,86.76a18.08,18.08,0,0,1-10.84-3.26,20.32,20.32,0,0,1-6.92-9.1,35.87,35.87,0,0,1-2.4-13.68v-1a40.4,40.4,0,0,1,2.42-14.64,22.08,22.08,0,0,1,6.92-9.76,17,17,0,0,1,10.77-3.5A16,16,0,0,1,455,33.54a17.23,17.23,0,0,1,5.65,4.92v-19L453,18V9.39h21.92V75.7l6.85,1.47v8.56H462.54l-1.08-6.46a17.19,17.19,0,0,1-6,5.58A16.6,16.6,0,0,1,447.37,86.76Zm4.26-11.11a10,10,0,0,0,9-4.94V48.25a9.74,9.74,0,0,0-8.91-5.34,8.17,8.17,0,0,0-7.8,4.65q-2.43,4.65-2.42,12.14v1q0,7,2.35,10.94T451.63,75.65Z" transform="translate(-4.75 -9.39)"/><path class="cls-1" d="M511.67,86.76a25.62,25.62,0,0,1-13.29-3.35,23.08,23.08,0,0,1-8.75-9.23,28.11,28.11,0,0,1-3.11-13.41v-2a32,32,0,0,1,2.93-14,23.32,23.32,0,0,1,8.3-9.59A22.37,22.37,0,0,1,510.4,31.8q10.71,0,16.39,6.29t5.68,17.64v7.78H501.34l-.09.3a13.9,13.9,0,0,0,3.47,8.61q3.09,3.38,8.76,3.38a25.75,25.75,0,0,0,7.32-1,27.81,27.81,0,0,0,6.63-3l3.86,8.81A27.49,27.49,0,0,1,523.05,85,34.36,34.36,0,0,1,511.67,86.76ZM501.44,54.07h17.67V52.8a13,13,0,0,0-2-7.61q-2-2.82-6.49-2.82a7.48,7.48,0,0,0-6.56,3.26,17.54,17.54,0,0,0-2.79,8.19Z" transform="translate(-4.75 -9.39)"/><path class="cls-1" d="M538.73,85.73V77.17l7.59-1.47V24.56l-7.59-1.47V14.48h33.91a32.1,32.1,0,0,1,14.1,2.86,21.4,21.4,0,0,1,9.1,8A22.09,22.09,0,0,1,599,37.23a22.1,22.1,0,0,1-3.18,11.92,21.1,21.1,0,0,1-9.1,7.93,32.54,32.54,0,0,1-14.1,2.81h-12V75.7l7.63,1.47v8.56Zm21.88-36.85h12q6,0,9-3.25a11.64,11.64,0,0,0,3.06-8.3,12.13,12.13,0,0,0-3.06-8.49q-3.06-3.35-9-3.35h-12Z" transform="translate(-4.75 -9.39)"/><path class="cls-1" d="M605,85.73V77.17l6.85-1.47V42.86l-7.58-1.47V32.78h20.89l.54,6.56.1,1.17q3.91-8.7,11.74-8.71a21.61,21.61,0,0,1,2.77.2,15.52,15.52,0,0,1,2.71.59L641.5,45.75l-7.1-.39a8.34,8.34,0,0,0-4.92,1,11.2,11.2,0,0,0-3.35,3.37V75.7L633,77.17v8.56Z" transform="translate(-4.75 -9.39)"/><path class="cls-1" d="M671.54,86.76a25.31,25.31,0,0,1-13.48-3.43,22.47,22.47,0,0,1-8.59-9.52,31.46,31.46,0,0,1-3-14v-1a31.33,31.33,0,0,1,3-14,22.66,22.66,0,0,1,8.59-9.55,25.05,25.05,0,0,1,13.39-3.45,25.32,25.32,0,0,1,13.43,3.43,22.53,22.53,0,0,1,8.59,9.52,31.46,31.46,0,0,1,3,14v1a31.46,31.46,0,0,1-3,14,22.49,22.49,0,0,1-8.57,9.52A25,25,0,0,1,671.54,86.76Zm0-11a8.69,8.69,0,0,0,8.1-4.41q2.57-4.4,2.57-11.6v-1q0-7.05-2.59-11.5a8.78,8.78,0,0,0-8.17-4.46q-5.58,0-8.13,4.46t-2.54,11.5v1q0,7.25,2.54,11.63T671.54,75.8Z" transform="translate(-4.75 -9.39)"/></svg>