<svg id="Layer_1" data-name="Layer 1" xmlns="http://www.w3.org/2000/svg" viewBox="0 0 391.58 289.64"><defs><style>.cls-1{fill:#92e3a9;}</style></defs><title>scp-logo-green</title><path class="cls-1" d="M97.79,289.56q-24.11,0-38.1-6.22t-20-18.56Q33.6,252.4,33.6,231.57v-45q0-13.83-3.5-21.54a20.59,20.59,0,0,0-10.5-10.8q-7-3.12-19.6-3.11V138.4q12.45,0,19.44-3.11A20.9,20.9,0,0,0,30,124.56Q33.59,117,33.6,103V58q0-20.83,6.06-33.2T59.72,6.22Q73.72,0,97.82,0h4V12.6q-12.28,0-18.43,1.32a27.39,27.39,0,0,0-10,4,21.38,21.38,0,0,0-6.25,6.86A35.89,35.89,0,0,0,63.3,36.44a111.65,111.65,0,0,0-1.4,19.75V86.36q0,15.7-2.72,26.2a42.65,42.65,0,0,1-9.72,18.2q-7,7.69-19.13,12.67v2.8A51.78,51.78,0,0,1,49.38,159a42.26,42.26,0,0,1,9.88,18.59A108.6,108.6,0,0,1,61.9,203.3v30.17a111.65,111.65,0,0,0,1.4,19.75,35.89,35.89,0,0,0,3.89,11.66,21.44,21.44,0,0,0,6.29,6.84,27.39,27.39,0,0,0,10,4Q89.58,277,101.86,277v12.6Z"/><path class="cls-1" d="M157.85,53l53.34,80.56v9.17l-59.88,82.57h70.48q13.53,0,19.6-6.06t10-27.52h15.55l-3.42,59.24H116v-7.62l69.66-95.79L120.37,46.26V38.65H264.06V92.92H249.44q-6.37-25-13.14-32.5T216.79,53Z"/><path class="cls-1" d="M293.79,0q24.1,0,38.1,6.22t20,18.56Q358,37.14,358,58v44.94q0,14,3.57,21.61a20.9,20.9,0,0,0,10.58,10.73q7,3.12,19.44,3.11v12.76q-12.6,0-19.6,3.11a20.59,20.59,0,0,0-10.5,10.8q-3.5,7.71-3.49,21.54v44.94q0,20.85-6.07,33.21t-20.06,18.58q-14,6.21-38.1,6.22h-4v-12.6q12.28,0,18.43-1.32a27.52,27.52,0,0,0,10-4,21.44,21.44,0,0,0,6.29-6.84,36.21,36.21,0,0,0,3.89-11.66,111.65,111.65,0,0,0,1.4-19.75V203.25q0-15.7,2.72-26.2a42.65,42.65,0,0,1,9.72-18.2q7-7.69,19.13-12.67v-2.8a51.51,51.51,0,0,1-19-12.75,42.15,42.15,0,0,1-9.87-18.58q-2.66-10.65-2.65-25.74V56.14a111.65,111.65,0,0,0-1.4-19.75,36.28,36.28,0,0,0-4-11.61,21.44,21.44,0,0,0-6.29-6.84,27.52,27.52,0,0,0-10-4q-6.15-1.32-18.43-1.32V0Z"/></svg>